<?xml version="1.0" encoding="UTF-8"?>
<svg version="1.1" xmlns="http://www.w3.org/2000/svg" width="360" height="360">
<path d="M0 0 C118.8 0 237.6 0 360 0 C360 118.8 360 237.6 360 360 C241.2 360 122.4 360 0 360 C0 241.2 0 122.4 0 0 Z " fill="#FCFCFC" transform="translate(0,0)"/>
<path d="M0 0 C118.8 0 237.6 0 360 0 C360 71.28 360 142.56 360 216 C352.08 216 344.16 216 336 216 C336 208.08 336 200.16 336 192 C328.08 192 320.16 192 312 192 C312 184.08 312 176.16 312 168 C301.11 168 290.22 168 279 168 C279 170.97 279 173.94 279 177 C278.67 177 278.34 177 278 177 C277.99853344 176.37677542 277.99706688 175.75355083 277.99555588 175.11144066 C277.95848257 159.93761004 277.89946116 144.76403651 277.81609726 129.59039879 C277.77631047 122.25248225 277.74391623 114.91467289 277.72900391 107.57666016 C277.71598543 101.17983436 277.68901607 94.78324444 277.64538693 88.3865515 C277.62277611 85.00039241 277.60708906 81.6145242 277.60811615 78.22828293 C277.60575465 74.44528464 277.57873803 70.66321044 277.54589844 66.88037109 C277.5509288 65.76115265 277.55595917 64.6419342 277.56114197 63.48880005 C277.48183187 57.59005753 277.40011188 53.36373196 273 49 C265.99553155 44.18999692 258.41841274 44.42724587 250.20605469 44.4699707 C248.83353704 44.46286071 247.46102755 44.45399198 246.08853149 44.44351196 C242.38626819 44.42003894 238.68435905 44.42061647 234.98203945 44.42542672 C231.09792386 44.4260228 227.21394679 44.40328964 223.32989502 44.38285828 C215.98024708 44.34752847 208.63069784 44.33144508 201.28097463 44.3230831 C190.49021615 44.31010272 179.6995403 44.27178707 168.90886307 44.22898388 C168.11662047 44.22584519 167.32437788 44.22270651 166.50812793 44.21947271 C164.92842609 44.21319204 163.3487245 44.20684845 161.76902318 44.20044011 C157.14990638 44.18240483 152.53083802 44.17127631 147.91168928 44.16614306 C145.04015036 44.16230614 142.16862901 44.15469011 139.29710007 44.1463356 C137.33364058 44.14197296 135.37017193 44.14263493 133.40670776 44.14344788 C131.64893509 44.13743561 131.64893509 44.13743561 129.85565186 44.13130188 C128.83954205 44.1300446 127.82343224 44.12878733 126.77653122 44.12749195 C124 44 124 44 119 43 C119.33 36.73 119.66 30.46 120 24 C112.08 24 104.16 24 96 24 C96 31.92 96 39.84 96 48 C88.08 48 80.16 48 72 48 C72 55.92 72 63.84 72 72 C79.92 72 87.84 72 96 72 C96 79.92 96 87.84 96 96 C88.08 96 80.16 96 72 96 C72 103.92 72 111.84 72 120 C79.92 120 87.84 120 96 120 C96 127.92 96 135.84 96 144 C88.08 144 80.16 144 72 144 C72 151.92 72 159.84 72 168 C79.92 168 87.84 168 96 168 C96 175.92 96 183.84 96 192 C88.08 192 80.16 192 72 192 C72 199.92 72 207.84 72 216 C79.92 216 87.84 216 96 216 C96 223.92 96 231.84 96 240 C88.08 240 80.16 240 72 240 C72 247.92 72 255.84 72 264 C64.08 264 56.16 264 48 264 C48 271.92 48 279.84 48 288 C55.92 288 63.84 288 72 288 C72 295.92 72 303.84 72 312 C79.92 312 87.84 312 96 312 C96 319.92 96 327.84 96 336 C103.92 336 111.84 336 120 336 C120 343.92 120 351.84 120 360 C80.4 360 40.8 360 0 360 C0 241.2 0 122.4 0 0 Z " fill="#FEFEFE" transform="translate(0,0)"/>
<path d="M0 0 C1.4035177 -0.00706553 2.80702778 -0.01581321 4.21052551 -0.02610779 C8.00830763 -0.04854545 11.80567186 -0.04567474 15.60349488 -0.03678632 C18.78166687 -0.03166208 21.95976133 -0.03898092 25.13792533 -0.04625839 C32.64117329 -0.06324084 40.14421783 -0.05970987 47.64746094 -0.04296875 C55.36894739 -0.02606252 63.08986787 -0.0418647 70.81129247 -0.07419163 C77.4570125 -0.10095326 84.10255706 -0.10814547 90.74832553 -0.09967655 C94.71024711 -0.09476473 98.67182862 -0.09686704 102.63370705 -0.11746407 C106.36289915 -0.13592413 110.09128305 -0.12973852 113.82043266 -0.10526466 C115.82709416 -0.09793125 117.83379938 -0.11503369 119.84039307 -0.13308716 C127.419345 -0.05417147 134.04770291 0.66836519 140.14526367 5.53344727 C143.56279586 9.76087839 144.64427796 12.57965452 144.62628174 17.98751831 C144.6317804 19.26630356 144.63727905 20.54508881 144.64294434 21.86262512 C144.62879048 23.26706313 144.61425128 24.6714973 144.59936523 26.07592773 C144.59823615 27.56447825 144.59887181 29.05303098 144.60113525 30.5415802 C144.60228097 34.57228438 144.5787951 38.60251056 144.55083942 42.63310385 C144.52580184 46.84913796 144.52348192 51.06518353 144.51873779 55.28128052 C144.50631492 63.2604036 144.4735027 71.23930695 144.43333983 79.21833336 C144.38860064 88.30412105 144.36662969 97.38991933 144.34655809 106.47578979 C144.30476941 125.16180009 144.2344308 143.847606 144.14526367 162.53344727 C143.48526367 162.53344727 142.82526367 162.53344727 142.14526367 162.53344727 C142.14526367 163.19344727 142.14526367 163.85344727 142.14526367 164.53344727 C140.78377197 164.55532104 140.78377197 164.55532104 139.39477539 164.57763672 C136.00617057 164.63892875 132.61834678 164.71312303 129.23022461 164.79589844 C127.76776659 164.82901862 126.30518472 164.85709031 124.8425293 164.87988281 C122.73196964 164.91366902 120.62253181 164.96599107 118.51245117 165.02172852 C116.61148682 165.06100464 116.61148682 165.06100464 114.67211914 165.10107422 C109.61307977 165.72128457 106.49242593 167.2539173 102.80615234 170.75512695 C100.66484352 174.33708997 100.61741745 176.82687994 100.57104492 180.98657227 C100.54979805 182.03781281 100.54979805 182.03781281 100.52812195 183.11029053 C100.48638964 185.33483491 100.471007 187.55856732 100.45776367 189.78344727 C100.4287228 192.0222341 100.39424872 194.26081551 100.35527039 196.49945068 C100.3225274 198.52008543 100.30446999 200.54094213 100.28710938 202.56176758 C100.14526367 205.53344727 100.14526367 205.53344727 99.14526367 206.53344727 C97.69149473 206.635564 96.23280844 206.66863186 94.77546692 206.67388916 C93.83196381 206.6795993 92.88846069 206.68530945 91.91636658 206.69119263 C90.87275467 206.69231049 89.82914276 206.69342834 88.75390625 206.69458008 C87.66124451 206.69954498 86.56858276 206.70450989 85.44281006 206.70962524 C81.80846539 206.72429429 78.1741644 206.73105765 74.53979492 206.73657227 C72.02210996 206.74232095 69.50442503 206.74807871 66.98674011 206.75384521 C62.3749975 206.76302234 57.76326808 206.76931638 53.15151864 206.77234197 C46.36758999 206.77681693 39.58386341 206.79433421 32.7999962 206.82334256 C26.92404209 206.84759473 21.04815517 206.85528793 15.17215538 206.85701752 C12.67349843 206.86004644 10.17484238 206.86808298 7.67621803 206.8812027 C4.17852115 206.89825321 0.68131531 206.89638476 -2.81640625 206.88989258 C-3.849897 206.89910736 -4.88338776 206.90832214 -5.94819641 206.91781616 C-11.34402875 206.88643548 -15.20090062 206.59077991 -19.85473633 203.53344727 C-21.49926758 201.81469727 -21.49926758 201.81469727 -22.66723633 200.03344727 C-23.06555664 199.44563477 -23.46387695 198.85782227 -23.87426758 198.25219727 C-26.09149614 194.36542209 -26.00551297 190.68533607 -26.00863647 186.35505676 C-26.01520986 185.25099417 -26.01520986 185.25099417 -26.02191603 184.12462729 C-26.03530068 181.65127889 -26.04148215 179.17796612 -26.04760742 176.70458984 C-26.05550869 174.93389729 -26.06377766 173.16320634 -26.0723877 171.39251709 C-26.09860622 165.57101987 -26.11391574 159.74951547 -26.12817383 153.92797852 C-26.13353369 151.92377912 -26.1389112 149.91957978 -26.14430618 147.91538048 C-26.16593517 139.57797398 -26.18467156 131.24056943 -26.19592857 122.90314198 C-26.2121656 110.95594694 -26.24533728 99.00907725 -26.30232942 87.06200486 C-26.34103826 78.66103956 -26.36056242 70.26016124 -26.36584914 61.8591091 C-26.36950145 56.84194286 -26.38151 51.82512363 -26.41395187 46.80805397 C-26.44404881 42.08590553 -26.45033852 37.36431377 -26.43856812 32.64208984 C-26.43834751 30.9119274 -26.44664157 29.18173901 -26.46422195 27.45166588 C-26.62003221 11.23142739 -26.62003221 11.23142739 -22.35822773 5.96385384 C-15.55992795 -0.50398008 -9.04576715 -0.04521314 0 0 Z " fill="#70D7E7" transform="translate(133.854736328125,43.466552734375)"/>
<path d="M0 0 C1.78083984 0.02126953 1.78083984 0.02126953 3.59765625 0.04296875 C12.25715762 0.19107881 12.25715762 0.19107881 14.625 1.375 C14.625 2.035 14.625 2.695 14.625 3.375 C17.925 3.375 21.225 3.375 24.625 3.375 C24.625 11.295 24.625 19.215 24.625 27.375 C16.705 27.375 8.785 27.375 0.625 27.375 C0.625 35.295 0.625 43.215 0.625 51.375 C8.545 51.375 16.465 51.375 24.625 51.375 C24.625 59.295 24.625 67.215 24.625 75.375 C16.705 75.375 8.785 75.375 0.625 75.375 C0.625 80.985 0.625 86.595 0.625 92.375 C2.213125 92.478125 3.80125 92.58125 5.4375 92.6875 C10.11552513 92.99126787 10.11552513 92.99126787 12.4609375 94.7578125 C13.625 96.375 13.625 96.375 13.4375 98.9375 C12.625 101.375 12.625 101.375 10.625 103.375 C7.7043997 103.59285903 4.87586809 103.68644537 1.95263672 103.69384766 C1.05501617 103.70389328 0.15739563 103.7139389 -0.76742554 103.72428894 C-3.74338116 103.75525475 -6.71924629 103.77219317 -9.6953125 103.7890625 C-11.75512478 103.80776338 -13.81492931 103.82733597 -15.87472534 103.8477478 C-21.30311527 103.89918913 -26.73153008 103.9387505 -32.16003418 103.97589111 C-37.6965964 104.0158557 -43.2330541 104.06698236 -48.76953125 104.1171875 C-59.63794754 104.21408881 -70.50642268 104.29844797 -81.375 104.375 C-78.075 104.705 -74.775 105.035 -71.375 105.375 C-71.375 111.315 -71.375 117.255 -71.375 123.375 C-79.295 123.375 -87.215 123.375 -95.375 123.375 C-95.375 115.455 -95.375 107.535 -95.375 99.375 C-103.295 99.375 -111.215 99.375 -119.375 99.375 C-119.375 92.775 -119.375 86.175 -119.375 79.375 C-121.30327637 79.36041748 -123.23155273 79.34583496 -125.21826172 79.33081055 C-131.58069238 79.27921892 -137.94286688 79.21394957 -144.30506706 79.13928509 C-148.16348061 79.09450747 -152.02178677 79.05526816 -155.88037109 79.02856445 C-159.60233499 79.00260447 -163.32388724 78.96225531 -167.04559708 78.91181374 C-168.46734634 78.89509524 -169.88916689 78.88361206 -171.31100082 78.87738609 C-173.29843086 78.86779989 -175.28573322 78.83807549 -177.27294922 78.80737305 C-178.40546112 78.79626999 -179.53797302 78.78516693 -180.70480347 78.77372742 C-181.58596832 78.64214737 -182.46713318 78.51056732 -183.375 78.375 C-185.375 75.375 -185.375 75.375 -185.1875 72.8125 C-184.375 70.375 -184.375 70.375 -181.375 68.375 C-178.91312885 68.11328697 -178.91312885 68.11328697 -175.92707825 68.0965271 C-174.22964729 68.07978188 -174.22964729 68.07978188 -172.4979248 68.06269836 C-171.25571167 68.06053818 -170.01349854 68.05837799 -168.73364258 68.05615234 C-167.42622604 68.04610672 -166.11880951 68.0360611 -164.77177429 68.02571106 C-161.18530196 67.99837828 -157.59886898 67.98325201 -154.0123198 67.97028303 C-150.2646522 67.95466678 -146.51706512 67.92787179 -142.76945496 67.9022522 C-135.67222527 67.85543767 -128.57498047 67.81870654 -121.47767514 67.78557932 C-113.39790308 67.74737679 -105.31821184 67.69796176 -97.23850787 67.64759517 C-80.6173956 67.54423556 -63.99623942 67.45538604 -47.375 67.375 C-47.375 62.095 -47.375 56.815 -47.375 51.375 C-39.455 51.375 -31.535 51.375 -23.375 51.375 C-23.375 49.27125 -23.375 47.1675 -23.375 45 C-23.375 42.125 -23.375 39.25 -23.375 36.375 C-23.705 36.045 -24.035 35.715 -24.375 35.375 C-24.65704376 31.48664222 -24.60688328 27.58485854 -24.625 23.6875 C-24.6559375 22.05264648 -24.6559375 22.05264648 -24.6875 20.38476562 C-24.73959035 9.68670929 -24.73959035 9.68670929 -21.375 5.375 C-15.13146372 -0.62513734 -8.23112057 -0.26434385 0 0 Z " fill="#FDFDFD" transform="translate(263.375,212.625)"/>
<path d="M0 0 C1.4035177 -0.00706553 2.80702778 -0.01581321 4.21052551 -0.02610779 C8.00830763 -0.04854545 11.80567186 -0.04567474 15.60349488 -0.03678632 C18.78166687 -0.03166208 21.95976133 -0.03898092 25.13792533 -0.04625839 C32.64117329 -0.06324084 40.14421783 -0.05970987 47.64746094 -0.04296875 C55.36894739 -0.02606252 63.08986787 -0.0418647 70.81129247 -0.07419163 C77.4570125 -0.10095326 84.10255706 -0.10814547 90.74832553 -0.09967655 C94.71024711 -0.09476473 98.67182862 -0.09686704 102.63370705 -0.11746407 C106.36289915 -0.13592413 110.09128305 -0.12973852 113.82043266 -0.10526466 C115.82709416 -0.09793125 117.83379938 -0.11503369 119.84039307 -0.13308716 C127.419345 -0.05417147 134.04770291 0.66836519 140.14526367 5.53344727 C143.56279586 9.76087839 144.64427796 12.57965452 144.62628174 17.98751831 C144.6317804 19.26630356 144.63727905 20.54508881 144.64294434 21.86262512 C144.62879048 23.26706313 144.61425128 24.6714973 144.59936523 26.07592773 C144.59823615 27.56447825 144.59887181 29.05303098 144.60113525 30.5415802 C144.60228097 34.57228438 144.5787951 38.60251056 144.55083942 42.63310385 C144.52580184 46.84913796 144.52348192 51.06518353 144.51873779 55.28128052 C144.50631492 63.2604036 144.4735027 71.23930695 144.43333983 79.21833336 C144.38860064 88.30412105 144.36662969 97.38991933 144.34655809 106.47578979 C144.30476941 125.16180009 144.2344308 143.847606 144.14526367 162.53344727 C143.48526367 162.53344727 142.82526367 162.53344727 142.14526367 162.53344727 C142.14526367 163.19344727 142.14526367 163.85344727 142.14526367 164.53344727 C140.78377197 164.55532104 140.78377197 164.55532104 139.39477539 164.57763672 C136.00617057 164.63892875 132.61834678 164.71312303 129.23022461 164.79589844 C127.76776659 164.82901862 126.30518472 164.85709031 124.8425293 164.87988281 C122.73196964 164.91366902 120.62253181 164.96599107 118.51245117 165.02172852 C116.61148682 165.06100464 116.61148682 165.06100464 114.67211914 165.10107422 C109.61307977 165.72128457 106.49242593 167.2539173 102.80615234 170.75512695 C100.66484352 174.33708997 100.61741745 176.82687994 100.57104492 180.98657227 C100.54979805 182.03781281 100.54979805 182.03781281 100.52812195 183.11029053 C100.48638964 185.33483491 100.471007 187.55856732 100.45776367 189.78344727 C100.4287228 192.0222341 100.39424872 194.26081551 100.35527039 196.49945068 C100.3225274 198.52008543 100.30446999 200.54094213 100.28710938 202.56176758 C100.14526367 205.53344727 100.14526367 205.53344727 99.14526367 206.53344727 C97.69149473 206.635564 96.23280844 206.66863186 94.77546692 206.67388916 C93.83196381 206.6795993 92.88846069 206.68530945 91.91636658 206.69119263 C90.87275467 206.69231049 89.82914276 206.69342834 88.75390625 206.69458008 C87.66124451 206.69954498 86.56858276 206.70450989 85.44281006 206.70962524 C81.80846539 206.72429429 78.1741644 206.73105765 74.53979492 206.73657227 C72.02210996 206.74232095 69.50442503 206.74807871 66.98674011 206.75384521 C62.3749975 206.76302234 57.76326808 206.76931638 53.15151864 206.77234197 C46.36758999 206.77681693 39.58386341 206.79433421 32.7999962 206.82334256 C26.92404209 206.84759473 21.04815517 206.85528793 15.17215538 206.85701752 C12.67349843 206.86004644 10.17484238 206.86808298 7.67621803 206.8812027 C4.17852115 206.89825321 0.68131531 206.89638476 -2.81640625 206.88989258 C-3.849897 206.89910736 -4.88338776 206.90832214 -5.94819641 206.91781616 C-11.34402875 206.88643548 -15.20090062 206.59077991 -19.85473633 203.53344727 C-21.49926758 201.81469727 -21.49926758 201.81469727 -22.66723633 200.03344727 C-23.06555664 199.44563477 -23.46387695 198.85782227 -23.87426758 198.25219727 C-26.09149614 194.36542209 -26.00551297 190.68533607 -26.00863647 186.35505676 C-26.01520986 185.25099417 -26.01520986 185.25099417 -26.02191603 184.12462729 C-26.03530068 181.65127889 -26.04148215 179.17796612 -26.04760742 176.70458984 C-26.05550869 174.93389729 -26.06377766 173.16320634 -26.0723877 171.39251709 C-26.09860622 165.57101987 -26.11391574 159.74951547 -26.12817383 153.92797852 C-26.13353369 151.92377912 -26.1389112 149.91957978 -26.14430618 147.91538048 C-26.16593517 139.57797398 -26.18467156 131.24056943 -26.19592857 122.90314198 C-26.2121656 110.95594694 -26.24533728 99.00907725 -26.30232942 87.06200486 C-26.34103826 78.66103956 -26.36056242 70.26016124 -26.36584914 61.8591091 C-26.36950145 56.84194286 -26.38151 51.82512363 -26.41395187 46.80805397 C-26.44404881 42.08590553 -26.45033852 37.36431377 -26.43856812 32.64208984 C-26.43834751 30.9119274 -26.44664157 29.18173901 -26.46422195 27.45166588 C-26.62003221 11.23142739 -26.62003221 11.23142739 -22.35822773 5.96385384 C-15.55992795 -0.50398008 -9.04576715 -0.04521314 0 0 Z M-16.85473633 12.53344727 C-17.36834442 15.14465844 -17.52762201 17.12247598 -17.48292542 19.73875427 C-17.4900198 20.47761826 -17.49711419 21.21648225 -17.50442356 21.97773606 C-17.52206778 24.46094228 -17.50386769 26.9425964 -17.48583984 29.42578125 C-17.49097629 31.20296951 -17.49825549 32.98015269 -17.50752258 34.75732422 C-17.52608122 39.59009646 -17.51306945 44.42231899 -17.49343228 49.25506854 C-17.47707865 54.30742738 -17.4858542 59.3597505 -17.49095154 64.41212463 C-17.4954766 72.89870002 -17.47957816 81.3850553 -17.45166016 89.87158203 C-17.41961672 99.68793948 -17.41961866 109.50389964 -17.43687493 119.32028526 C-17.45273137 128.75551114 -17.44601146 138.19059114 -17.42893791 147.62581062 C-17.42205912 151.64450009 -17.42310839 155.66307293 -17.43048286 159.68176079 C-17.43813627 164.41376234 -17.42605054 169.14531111 -17.39863396 173.87723541 C-17.3917387 175.61549345 -17.39166434 177.35379369 -17.39884949 179.09205055 C-17.40751884 181.46226028 -17.39163261 183.83106461 -17.36940002 186.20115662 C-17.37764079 186.89172053 -17.38588156 187.58228445 -17.39437205 188.29377455 C-17.33799984 191.54214983 -17.02172297 193.30245028 -15.09939861 195.9616518 C-12.58936952 197.71926691 -11.45202034 198.02908632 -8.42547607 198.01446533 C-7.5449054 198.01996399 -6.66433472 198.02546265 -5.75708008 198.03112793 C-4.79898438 198.01674683 -3.84088867 198.00236572 -2.85375977 197.98754883 C-1.3313266 197.98842499 -1.3313266 197.98842499 0.22186279 197.98931885 C3.57688589 197.98653197 6.93102076 197.9554104 10.28588867 197.92407227 C12.6118725 197.91661205 14.93786262 197.91091808 17.26385498 197.90692139 C23.3862035 197.89164792 29.50817253 197.8523508 35.63037109 197.80810547 C41.87747056 197.76719003 48.12463134 197.7489183 54.37182617 197.72875977 C66.62980542 197.68585865 78.88750299 197.61758617 91.14526367 197.53344727 C91.15984619 196.80754395 91.17442871 196.08164063 91.18945312 195.33374023 C91.26421226 192.02478995 91.36078157 188.71681774 91.45776367 185.40844727 C91.48032227 184.26633789 91.50288086 183.12422852 91.52612305 181.94750977 C91.71437954 176.06021568 91.92983722 171.65399234 95.14526367 166.53344727 C95.14526367 165.87344727 95.14526367 165.21344727 95.14526367 164.53344727 C96.13526367 164.20344727 97.12526367 163.87344727 98.14526367 163.53344727 C98.14526367 162.87344727 98.14526367 162.21344727 98.14526367 161.53344727 C99.81193034 160.8667806 101.47859701 160.20011393 103.14526367 159.53344727 C103.89638428 159.18878418 104.64750488 158.84412109 105.42138672 158.48901367 C108.57305413 157.3833736 111.20383547 157.21424617 114.53979492 157.11938477 C115.7418457 157.08071289 116.94389648 157.04204102 118.18237305 157.00219727 C120.05119141 156.95579102 120.05119141 156.95579102 121.95776367 156.90844727 C123.22297852 156.86977539 124.48819336 156.83110352 125.79174805 156.79125977 C128.90944219 156.6971407 132.02713281 156.61150366 135.14526367 156.53344727 C135.2620171 137.95771753 135.35021258 119.38206216 135.40432453 100.80604172 C135.43011647 92.18103528 135.46528568 83.55625669 135.52246094 74.93139648 C135.57226588 67.41476741 135.60454749 59.89830333 135.61570615 52.38151383 C135.62222994 48.4005963 135.63758248 44.42015083 135.67391396 40.43938446 C135.70782799 36.69317512 135.71832627 32.94763268 135.71080208 29.20128441 C135.71217872 27.82580377 135.72213953 26.45030107 135.74129105 25.07495308 C135.76614874 23.19789861 135.75721076 21.32048705 135.74653625 19.44329834 C135.75114522 18.39245434 135.75575418 17.34161034 135.76050282 16.25892258 C135.3447267 13.35705404 135.3447267 13.35705404 132.98009014 11.19540691 C129.73274202 9.29160024 127.9263316 9.03299722 124.18676758 9.03224182 C122.99231018 9.02240768 121.79785278 9.01257355 120.56719971 9.00244141 C119.26522644 9.01210938 117.96325317 9.02177734 116.62182617 9.03173828 C115.23019871 9.02795328 113.83857502 9.02245174 112.44696045 9.0153656 C108.67415328 9.00141702 104.90180246 9.01257622 101.12902069 9.02907681 C97.17821404 9.0429399 93.22743354 9.0364658 89.27661133 9.03294373 C82.64225929 9.03024259 76.00808826 9.04370879 69.3737793 9.06689453 C61.70688518 9.09350375 54.04029369 9.09525105 46.37336922 9.08350617 C38.99380756 9.07272164 31.61435523 9.07892073 24.23480225 9.09306145 C21.09614473 9.09881542 17.95756737 9.09874321 14.81890869 9.09399605 C11.12192128 9.0892187 7.42526466 9.09935896 3.72834015 9.1209507 C1.72668538 9.12915682 -0.27501274 9.12267403 -2.27667236 9.11575317 C-3.47112976 9.12565781 -4.66558716 9.13556244 -5.89624023 9.14576721 C-6.93229401 9.14819711 -7.96834778 9.150627 -9.03579712 9.15313053 C-12.46639509 9.61596911 -14.25431414 10.22195172 -16.85473633 12.53344727 Z " fill="#060708" transform="translate(133.854736328125,43.466552734375)"/>
<path d="M0 0 C1.14555862 -0.00563965 2.29111725 -0.0112793 3.47138977 -0.01708984 C5.35804855 -0.01101715 5.35804855 -0.01101715 7.28282166 -0.00482178 C8.6199055 -0.00753161 9.95698786 -0.0110925 11.29406738 -0.01544189 C14.92617675 -0.02456822 18.55817264 -0.02102091 22.19028401 -0.01468372 C25.98768883 -0.00962603 29.78508382 -0.01431443 33.58248901 -0.01745605 C39.95885465 -0.02109593 46.33517398 -0.01629558 52.71153259 -0.0067749 C60.08982872 0.00411437 67.46801436 0.00058076 74.84630781 -0.01042771 C81.17586848 -0.01949443 87.50539582 -0.02078904 93.83496088 -0.01555037 C97.61772533 -0.01242787 101.40043779 -0.01202907 105.18319893 -0.01862335 C108.73807784 -0.02438743 112.29281381 -0.0204173 115.84767723 -0.00883484 C117.77956825 -0.00491555 119.71147131 -0.01088157 121.64335632 -0.01708984 C123.35746452 -0.00863037 123.35746452 -0.00863037 125.10620117 0 C126.1033719 0.00075405 127.10054262 0.0015081 128.12793064 0.002285 C130.48960876 0.25396729 130.48960876 0.25396729 132.48960876 2.25396729 C132.84348725 5.01421951 132.96114989 6.58622374 131.33018494 8.89581299 C128.74254957 10.80521948 126.91922742 10.59553508 123.72789001 10.54693604 C122.6096283 10.53726807 121.49136658 10.5276001 120.33921814 10.51763916 C119.17197205 10.49250244 118.00472595 10.46736572 116.80210876 10.44146729 C115.62326111 10.42793213 114.44441345 10.41439697 113.22984314 10.40045166 C110.31623743 10.36506374 107.40286613 10.3112564 104.48960876 10.25396729 C104.98460876 17.18396729 104.98460876 17.18396729 105.48960876 24.25396729 C107.00177727 24.26276665 107.00177727 24.26276665 108.54449463 24.27174377 C118.03563084 24.32890654 127.5265365 24.40163411 137.01743793 24.4896822 C141.89706083 24.5344485 146.77659903 24.57369069 151.65635681 24.60040283 C156.36382453 24.62637353 161.07096737 24.66673131 165.77823448 24.71715355 C167.57596489 24.73386458 169.37375155 24.74535241 171.17154884 24.75158119 C173.68587594 24.76117646 176.19936391 24.78917958 178.71348572 24.82159424 C179.83342171 24.8194416 179.83342171 24.8194416 180.97598267 24.81724548 C183.94181996 24.87147868 185.99917216 24.918405 188.48733521 26.62083435 C189.48960876 28.25396729 189.48960876 28.25396729 189.30210876 30.81646729 C188.48960876 33.25396729 188.48960876 33.25396729 186.48960876 35.25396729 C183.56900846 35.47182632 180.74047685 35.56541265 177.81724548 35.57281494 C176.47081467 35.58788338 176.47081467 35.58788338 175.09718323 35.60325623 C172.12122761 35.63422204 169.14536248 35.65116046 166.16929626 35.66802979 C164.10948399 35.68673067 162.04967946 35.70630325 159.98988342 35.72671509 C154.56149349 35.77815641 149.13307869 35.81771778 143.70457458 35.8548584 C138.16801236 35.89482298 132.63155467 35.94594965 127.09507751 35.99615479 C116.22666123 36.09305609 105.35818609 36.17741525 94.48960876 36.25396729 C97.78960876 36.58396729 101.08960876 36.91396729 104.48960876 37.25396729 C104.48960876 43.19396729 104.48960876 49.13396729 104.48960876 55.25396729 C96.56960876 55.25396729 88.64960876 55.25396729 80.48960876 55.25396729 C80.48960876 47.33396729 80.48960876 39.41396729 80.48960876 31.25396729 C72.56960876 31.25396729 64.64960876 31.25396729 56.48960876 31.25396729 C56.48960876 24.65396729 56.48960876 18.05396729 56.48960876 11.25396729 C54.5613324 11.23938477 52.63305603 11.22480225 50.64634705 11.20977783 C44.28391638 11.15818621 37.92174188 11.09291685 31.5595417 11.01825237 C27.70112815 10.97347476 23.842822 10.93423545 19.98423767 10.90753174 C16.26227377 10.88157175 12.54072153 10.84122259 8.81901169 10.79078102 C7.39726242 10.77406253 5.97544187 10.76257935 4.55360794 10.75635338 C2.5661779 10.74676718 0.57887554 10.71704278 -1.40834045 10.68634033 C-2.54085236 10.67523727 -3.67336426 10.66413422 -4.8401947 10.6526947 C-5.72135956 10.52111465 -6.60252441 10.38953461 -7.51039124 10.25396729 C-9.51039124 7.25396729 -9.51039124 7.25396729 -9.32289124 4.69146729 C-7.73098294 -0.08425759 -4.42880152 0.00334775 0 0 Z " fill="#FDFDFD" transform="translate(87.51039123535156,280.74603271484375)"/>
<path d="M0 0 C1.78083984 0.02126953 1.78083984 0.02126953 3.59765625 0.04296875 C12.25715762 0.19107881 12.25715762 0.19107881 14.625 1.375 C14.625 2.035 14.625 2.695 14.625 3.375 C17.925 3.375 21.225 3.375 24.625 3.375 C24.625 11.295 24.625 19.215 24.625 27.375 C16.705 27.375 8.785 27.375 0.625 27.375 C0.625 35.295 0.625 43.215 0.625 51.375 C-7.295 51.375 -15.215 51.375 -23.375 51.375 C-23.375 46.375 -23.375 41.375 -23.375 36.375 C-23.705 36.045 -24.035 35.715 -24.375 35.375 C-24.65704376 31.48664222 -24.60688328 27.58485854 -24.625 23.6875 C-24.645625 22.59759766 -24.66625 21.50769531 -24.6875 20.38476562 C-24.73959035 9.68670929 -24.73959035 9.68670929 -21.375 5.375 C-15.13146372 -0.62513734 -8.23112057 -0.26434385 0 0 Z " fill="#ECECEC" transform="translate(263.375,212.625)"/>
<path d="M0 0 C0.86507172 -0.00426498 1.73014343 -0.00852997 2.62142944 -0.01292419 C3.57265182 -0.01247101 4.52387421 -0.01201782 5.50392151 -0.0115509 C6.50401245 -0.01490952 7.50410339 -0.01826813 8.53450012 -0.02172852 C11.85317717 -0.03125751 15.17180388 -0.03318257 18.49049377 -0.03425598 C20.7897341 -0.03746707 23.08897422 -0.04083103 25.38821411 -0.04434204 C30.21275812 -0.0503381 35.03728419 -0.05218144 39.86183167 -0.05158997 C46.05394604 -0.05148829 52.24594589 -0.06514447 58.4380331 -0.08236217 C63.18799369 -0.09346224 67.93792641 -0.09550979 72.68789864 -0.09498024 C74.97132322 -0.09616322 77.25474845 -0.10060267 79.53816032 -0.10831261 C82.72735063 -0.1180728 85.91628996 -0.11525021 89.10548401 -0.10920715 C90.05468216 -0.11482666 91.00388031 -0.12044617 91.98184204 -0.12623596 C93.28367935 -0.11994423 93.28367935 -0.11994423 94.61181641 -0.11352539 C95.74310801 -0.11434254 95.74310801 -0.11434254 96.89725399 -0.1151762 C98.86940002 0.13371277 98.86940002 0.13371277 101.86940002 2.13371277 C102.23268127 5.10246277 102.23268127 5.10246277 102.18190002 8.63371277 C102.17803284 9.79902527 102.17416565 10.96433777 102.17018127 12.16496277 C101.86940002 15.13371277 101.86940002 15.13371277 99.86940002 17.13371277 C98.00468445 17.38260174 98.00468445 17.38260174 95.69410706 17.38095093 C94.81917603 17.38514542 93.944245 17.3893399 93.0428009 17.3936615 C92.08065674 17.38804199 91.11851257 17.38242249 90.12721252 17.37663269 C88.61003632 17.37948021 88.61003632 17.37948021 87.06221008 17.38238525 C83.70619549 17.38610138 80.35039551 17.37537687 76.99440002 17.36418152 C74.67034429 17.36299008 72.34628808 17.36253648 70.02223206 17.36279297 C65.14638769 17.36122665 60.27061659 17.35292568 55.39479065 17.33952332 C49.13310267 17.32253329 42.87149531 17.3187089 36.60978699 17.3194685 C31.80925217 17.31919705 27.0087351 17.31371982 22.20820618 17.30646706 C19.89884068 17.30327647 17.58947317 17.30131208 15.28010559 17.30057335 C12.05723111 17.29841391 8.83444346 17.28967822 5.61158752 17.27897644 C4.16837128 17.27965622 4.16837128 17.27965622 2.69599915 17.28034973 C1.82106812 17.27608475 0.94613708 17.27181976 0.04469299 17.26742554 C-1.09904282 17.26491177 -1.09904282 17.26491177 -2.2658844 17.26234722 C-4.13059998 17.13371277 -4.13059998 17.13371277 -6.13059998 16.13371277 C-6.13059998 11.18371277 -6.13059998 6.23371277 -6.13059998 1.13371277 C-3.83614937 -0.01351253 -2.55088267 0.00567098 0 0 Z " fill="#010F11" transform="translate(145.13059997558594,86.86628723144531)"/>
<path d="M0 0 C0.87493103 -0.00563965 1.74986206 -0.0112793 2.65130615 -0.01708984 C4.0945224 -0.01101715 4.0945224 -0.01101715 5.56689453 -0.00482178 C7.08407074 -0.01007874 7.08407074 -0.01007874 8.63189697 -0.01544189 C11.9879027 -0.02427165 15.34369902 -0.01840562 18.69970703 -0.01165771 C21.02376343 -0.01300401 23.34781956 -0.01494423 25.671875 -0.01745605 C30.54771602 -0.02040901 35.42348387 -0.01610415 40.29931641 -0.0067749 C46.56104354 0.00461967 52.82259923 -0.00193888 59.08432007 -0.01391983 C63.88486023 -0.02113379 68.68535951 -0.01885263 73.48590088 -0.01366425 C75.79526795 -0.01232646 78.10463868 -0.01397993 80.41400146 -0.01862335 C83.63694142 -0.02368094 86.85960058 -0.01598907 90.08251953 -0.00482178 C91.0446637 -0.00887024 92.00680786 -0.0129187 92.99810791 -0.01708984 C94.31050446 -0.00863037 94.31050446 -0.00863037 95.64941406 0 C96.4119046 0.00075405 97.17439514 0.0015081 97.95999146 0.002285 C99.82470703 0.25396729 99.82470703 0.25396729 101.82470703 2.25396729 C102.09033203 5.22271729 102.09033203 5.22271729 102.07470703 8.75396729 C102.08244141 10.50193604 102.08244141 10.50193604 102.09033203 12.28521729 C101.82470703 15.25396729 101.82470703 15.25396729 99.82470703 17.25396729 C97.95999146 17.50564957 97.95999146 17.50564957 95.64941406 17.50793457 C94.33701752 17.51639404 94.33701752 17.51639404 92.99810791 17.52502441 C92.03596375 17.52097595 91.07381958 17.51692749 90.08251953 17.51275635 C88.56534332 17.51801331 88.56534332 17.51801331 87.01751709 17.52337646 C83.66151136 17.53220622 80.30571504 17.52634019 76.94970703 17.51959229 C74.62565063 17.52093858 72.3015945 17.5228788 69.97753906 17.52539062 C65.10169804 17.52834358 60.22593019 17.52403872 55.35009766 17.51470947 C49.08837053 17.5033149 42.82681483 17.50987345 36.56509399 17.5218544 C31.76455383 17.52906836 26.96405456 17.5267872 22.16351318 17.52159882 C19.85414612 17.52026103 17.54477538 17.5219145 15.2354126 17.52655792 C12.01247264 17.53161551 8.78981348 17.52392364 5.56689453 17.51275635 C4.12367828 17.51882904 4.12367828 17.51882904 2.65130615 17.52502441 C1.77637512 17.51938477 0.90144409 17.51374512 0 17.50793457 C-0.76249054 17.50718052 -1.52498108 17.50642647 -2.31057739 17.50564957 C-4.17529297 17.25396729 -4.17529297 17.25396729 -6.17529297 15.25396729 C-6.44091797 12.28521729 -6.44091797 12.28521729 -6.42529297 8.75396729 C-6.43044922 7.58865479 -6.43560547 6.42334229 -6.44091797 5.22271729 C-6.02261526 0.54756931 -4.28328335 0.00423588 0 0 Z " fill="#172322" transform="translate(145.17529296875,114.74603271484375)"/>
<path d="M0 0 C0.89182983 -0.00281982 1.78365967 -0.00563965 2.70251465 -0.00854492 C4.18153259 -0.00550858 4.18153259 -0.00550858 5.69042969 -0.00241089 C6.7228479 -0.00416321 7.75526611 -0.00591553 8.81896973 -0.00772095 C12.25009821 -0.01214168 15.68117563 -0.00920069 19.11230469 -0.00582886 C21.48502614 -0.00650183 23.85774753 -0.0074718 26.23046875 -0.00872803 C31.21061864 -0.0102053 36.19075063 -0.00804949 41.17089844 -0.00338745 C47.57059148 0.00230985 53.97024258 -0.000969 60.36993408 -0.00695992 C65.27165038 -0.01056473 70.17335665 -0.00942731 75.07507324 -0.00683212 C77.43550623 -0.00616263 79.79594012 -0.00699204 82.15637207 -0.00931168 C85.44899931 -0.0118369 88.74155761 -0.00799944 92.03417969 -0.00241089 C93.02019165 -0.00443512 94.00620361 -0.00645935 95.02209473 -0.00854492 C95.91392456 -0.0057251 96.80575439 -0.00290527 97.72460938 0 C98.50406921 0.00037703 99.28352905 0.00075405 100.08660889 0.0011425 C101.86230469 0.12698364 101.86230469 0.12698364 102.86230469 1.12698364 C102.96148038 3.27092883 102.99200618 5.41825097 102.98730469 7.56448364 C102.99117187 9.32598755 102.99117187 9.32598755 102.99511719 11.12307739 C102.86230469 14.12698364 102.86230469 14.12698364 101.86230469 16.12698364 C88.05889582 16.15031422 74.25548999 16.16789718 60.45206547 16.17879581 C54.04331341 16.18402531 47.63457454 16.19112415 41.22583008 16.2024231 C35.04671028 16.21324963 28.86760321 16.21925998 22.68847466 16.22186089 C20.32524858 16.22371556 17.96202325 16.22733697 15.59880257 16.2327137 C12.30128572 16.23992103 9.00382222 16.24097471 5.70629883 16.24050903 C4.71871582 16.24410431 3.73113281 16.24769958 2.71362305 16.25140381 C1.82034805 16.25002914 0.92707306 16.24865448 0.00672913 16.24723816 C-1.16440886 16.24862085 -1.16440886 16.24862085 -2.3592062 16.25003147 C-4.13769531 16.12698364 -4.13769531 16.12698364 -5.13769531 15.12698364 C-5.23678834 12.79538309 -5.26740035 10.46068423 -5.26269531 8.12698364 C-5.26527344 6.84823364 -5.26785156 5.56948364 -5.27050781 4.25198364 C-5.07521885 -0.34305069 -4.18673632 0.00202513 0 0 Z " fill="#000101" transform="translate(144.1376953125,143.87301635742188)"/>
<path d="M0 0 C1.4035177 -0.00706553 2.80702778 -0.01581321 4.21052551 -0.02610779 C8.00830763 -0.04854545 11.80567186 -0.04567474 15.60349488 -0.03678632 C18.78166687 -0.03166208 21.95976133 -0.03898092 25.13792533 -0.04625839 C32.64117329 -0.06324084 40.14421783 -0.05970987 47.64746094 -0.04296875 C55.36894739 -0.02606252 63.08986787 -0.0418647 70.81129247 -0.07419163 C77.4570125 -0.10095326 84.10255706 -0.10814547 90.74832553 -0.09967655 C94.71024711 -0.09476473 98.67182862 -0.09686704 102.63370705 -0.11746407 C106.36289915 -0.13592413 110.09128305 -0.12973852 113.82043266 -0.10526466 C115.82709416 -0.09793125 117.83379938 -0.11503369 119.84039307 -0.13308716 C127.31486914 -0.05525933 134.18325746 0.59222491 140.14526367 5.53344727 C141.40993977 8.20676327 141.40993977 8.20676327 142.14526367 10.53344727 C139.70776367 10.15844727 139.70776367 10.15844727 137.14526367 9.53344727 C136.81526367 8.87344727 136.48526367 8.21344727 136.14526367 7.53344727 C135.81526367 9.51344727 135.48526367 11.49344727 135.14526367 13.53344727 C134.44315765 13.04616559 133.74105164 12.55888391 133.01766968 12.05683613 C129.75954567 10.3288806 127.84925471 10.15863249 124.18676758 10.15922546 C122.99231018 10.15221115 121.79785278 10.14519684 120.56719971 10.13796997 C119.26522644 10.14561371 117.96325317 10.15325745 116.62182617 10.16113281 C115.2302015 10.15870356 113.83857857 10.15498294 112.44696045 10.15007019 C108.67422039 10.14067573 104.90174042 10.15007435 101.12902069 10.16340232 C97.17821725 10.17473118 93.22742635 10.1706082 89.27661133 10.1686554 C82.64229084 10.16777287 76.00807262 10.17884404 69.3737793 10.19726562 C61.70693377 10.21843262 54.04023804 10.22194287 46.37336922 10.21570367 C38.9938268 10.21000606 31.61433706 10.21566035 24.23480225 10.22687721 C21.09616114 10.23151794 17.9575523 10.23239933 14.81890869 10.23029137 C11.12199024 10.22840566 7.42522392 10.23653399 3.72834015 10.25235176 C1.72667906 10.25860786 -0.27500512 10.25509054 -2.27667236 10.25128174 C-4.06835846 10.26190895 -4.06835846 10.26190895 -5.89624023 10.27275085 C-6.93229401 10.27480372 -7.96834778 10.27685659 -9.03579712 10.27897167 C-12.31063515 10.43894461 -12.31063515 10.43894461 -16.85473633 12.53344727 C-16.85473633 71.60344727 -16.85473633 130.67344727 -16.85473633 191.53344727 C-17.18473633 191.53344727 -17.51473633 191.53344727 -17.85473633 191.53344727 C-18.18473633 133.78344727 -18.51473633 76.03344727 -18.85473633 16.53344727 C-20.50473633 16.86344727 -22.15473633 17.19344727 -23.85473633 17.53344727 C-24.18473633 21.49344727 -24.51473633 25.45344727 -24.85473633 29.53344727 C-25.18473633 29.53344727 -25.51473633 29.53344727 -25.85473633 29.53344727 C-26.75536243 11.92120346 -26.75536243 11.92120346 -22.63208008 6.07641602 C-15.46244241 -0.14777493 -9.23046278 -0.04613629 0 0 Z " fill="#0D1415" transform="translate(133.854736328125,43.466552734375)"/>
<path d="M0 0 C1.14555862 -0.00563965 2.29111725 -0.0112793 3.47138977 -0.01708984 C5.35804855 -0.01101715 5.35804855 -0.01101715 7.28282166 -0.00482178 C8.6199055 -0.00753161 9.95698786 -0.0110925 11.29406738 -0.01544189 C14.92617675 -0.02456822 18.55817264 -0.02102091 22.19028401 -0.01468372 C25.98768883 -0.00962603 29.78508382 -0.01431443 33.58248901 -0.01745605 C39.95885465 -0.02109593 46.33517398 -0.01629558 52.71153259 -0.0067749 C60.08982872 0.00411437 67.46801436 0.00058076 74.84630781 -0.01042771 C81.17586848 -0.01949443 87.50539582 -0.02078904 93.83496088 -0.01555037 C97.61772533 -0.01242787 101.40043779 -0.01202907 105.18319893 -0.01862335 C108.73807784 -0.02438743 112.29281381 -0.0204173 115.84767723 -0.00883484 C117.77956825 -0.00491555 119.71147131 -0.01088157 121.64335632 -0.01708984 C123.35746452 -0.00863037 123.35746452 -0.00863037 125.10620117 0 C126.1033719 0.00075405 127.10054262 0.0015081 128.12793064 0.002285 C130.48960876 0.25396729 130.48960876 0.25396729 132.48960876 2.25396729 C132.84417857 5.01961177 132.96794398 6.58654775 131.31684971 8.8903141 C128.79010304 10.776002 127.07884514 10.63138674 123.94125366 10.63491821 C122.21029449 10.64760742 122.21029449 10.64760742 120.44436646 10.66055298 C119.17724319 10.65448029 117.91011993 10.64840759 116.604599 10.64215088 C115.25766066 10.64621561 113.91072566 10.65155694 112.563797 10.65808105 C108.90478316 10.67177106 105.24602275 10.66644955 101.58700442 10.6569438 C97.7615685 10.64935743 93.93615453 10.65638981 90.11071777 10.66110229 C83.68725175 10.66656218 77.26388917 10.65936148 70.84043884 10.64508057 C63.40756462 10.6287466 55.97493716 10.63404693 48.5420689 10.65055978 C42.1657876 10.66415978 35.78958072 10.66610183 29.41328961 10.65824378 C25.60255674 10.65355993 21.79193999 10.65296194 17.98121452 10.66285324 C14.40000565 10.67149937 10.81911601 10.66554465 7.23794174 10.64817047 C5.29173983 10.64229139 3.34551102 10.65124074 1.39932251 10.66055298 C0.24816956 10.65209351 -0.9029834 10.64363403 -2.08901978 10.63491821 C-3.09356484 10.63378714 -4.09810991 10.63265606 -5.13309574 10.63149071 C-5.91760325 10.50690798 -6.70211077 10.38232525 -7.51039124 10.25396729 C-9.51039124 7.25396729 -9.51039124 7.25396729 -9.32289124 4.69146729 C-7.73098294 -0.08425759 -4.42880152 0.00334775 0 0 Z " fill="#252223" transform="translate(87.51039123535156,280.74603271484375)"/>
<path d="M0 0 C0.84836426 0.00247742 1.69672852 0.00495483 2.57080078 0.00750732 C3.46360245 0.00239639 4.35640411 -0.00271454 5.27626038 -0.00798035 C8.23787067 -0.0219204 11.1992494 -0.02091626 14.16088867 -0.01861572 C16.21350695 -0.02250027 18.26612442 -0.02683443 20.31874084 -0.03160095 C24.62544355 -0.03907269 28.9320643 -0.03876501 33.23876953 -0.0335083 C38.76509108 -0.02771285 44.29107758 -0.04464198 49.81734371 -0.06785297 C54.05776439 -0.08256587 58.29810393 -0.08346534 62.53854561 -0.08034325 C64.57635728 -0.0808577 66.61417335 -0.08611866 68.65196037 -0.09615517 C71.49882822 -0.10845474 74.34503768 -0.10176692 77.19189453 -0.09014893 C78.03823456 -0.09779266 78.88457458 -0.1054364 79.75656128 -0.11331177 C85.50468857 -0.06130958 85.50468857 -0.06130958 87.69776249 1.64539814 C88.94604492 3.28216553 88.94604492 3.28216553 88.75854492 5.84466553 C87.94604492 8.28216553 87.94604492 8.28216553 85.94604492 10.28216553 C83.03452282 10.48095201 80.21809459 10.55482841 77.30541992 10.54095459 C76.41101196 10.54445923 75.516604 10.54796387 74.59509277 10.55157471 C71.62866532 10.56040147 68.66247495 10.55453954 65.69604492 10.54779053 C63.64103143 10.54913691 61.58601825 10.55107721 59.53100586 10.55358887 C55.22010267 10.55654141 50.90928226 10.55223829 46.59838867 10.54290771 C41.06306368 10.53151313 35.52793262 10.53807191 29.99261475 10.55005264 C25.74795054 10.55726772 21.50333257 10.55498494 17.25866699 10.54979706 C15.21724424 10.54845958 13.17581733 10.55011168 11.13439941 10.55475616 C8.28504256 10.5598156 5.43600305 10.55211939 2.58666992 10.54095459 C1.73673462 10.54500305 0.88679932 10.54905151 0.0111084 10.55322266 C-5.82542723 10.51069338 -5.82542723 10.51069338 -8.05395508 8.28216553 C-8.30395508 5.28216553 -8.30395508 5.28216553 -8.05395508 2.28216553 C-5.43419644 -0.33759311 -3.56764782 0.03271919 0 0 Z " fill="#2B2728" transform="translate(188.053955078125,305.71783447265625)"/>
<path d="M0 0 C1.20398438 0.02255859 2.40796875 0.04511719 3.6484375 0.06835938 C6.60026661 0.12692741 9.54946573 0.20889978 12.5 0.3125 C13.19116211 2.59619141 13.19116211 2.59619141 13.5 5.3125 C12.30688477 7.11083984 12.30688477 7.11083984 10.44140625 8.7734375 C9.75272461 9.4032251 9.06404297 10.0330127 8.35449219 10.68188477 C7.59813477 11.34373779 6.84177734 12.00559082 6.0625 12.6875 C4.49534221 14.09942669 2.92895534 15.51220947 1.36328125 16.92578125 C0.55713379 17.64588379 -0.24901367 18.36598633 -1.07958984 19.10791016 C-3.44802283 21.26515747 -5.74089248 23.47889101 -8.01953125 25.73046875 C-8.73117432 26.42672363 -9.44281738 27.12297852 -10.17602539 27.84033203 C-11.53791219 29.17640791 -12.8903431 30.52220477 -14.23217773 31.87841797 C-14.85165283 32.4767041 -15.47112793 33.07499023 -16.109375 33.69140625 C-16.64530273 34.2232251 -17.18123047 34.75504395 -17.73339844 35.30297852 C-19.5 36.3125 -19.5 36.3125 -22.21191406 35.97631836 C-22.96698242 35.7572583 -23.72205078 35.53819824 -24.5 35.3125 C-24.58751413 31.43764365 -24.64056435 27.56304357 -24.6875 23.6875 C-24.71263672 22.59308594 -24.73777344 21.49867188 -24.76367188 20.37109375 C-24.8615433 9.60523702 -24.8615433 9.60523702 -21.5 5.3125 C-15.23002156 -0.73780037 -8.26874337 -0.29531226 0 0 Z " fill="#090B0C" transform="translate(263.5,212.6875)"/>
<path d="M0 0 C32.34 0 64.68 0 98 0 C98 2.31 98 4.62 98 7 C65.66 7 33.32 7 0 7 C0 4.69 0 2.38 0 0 Z " fill="#E9E9E9" transform="translate(144,92)"/>
<path d="M0 0 C1.19879288 -0.00556915 2.39758575 -0.01113831 3.63270569 -0.01687622 C4.93939209 -0.00766144 6.24607849 0.00155334 7.59236145 0.01104736 C8.98885221 0.01025611 10.38534276 0.00815769 11.78182983 0.00485229 C15.56677678 -0.0002742 19.35145106 0.01323703 23.13635421 0.0303793 C27.09656208 0.04542765 31.05676661 0.04424151 35.01699829 0.04504395 C41.66391143 0.04873407 48.31072115 0.06369114 54.95759583 0.08624268 C63.49594765 0.11515214 72.03421636 0.12546965 80.57261181 0.12992477 C87.9089104 0.13390088 95.24519084 0.14640047 102.58147645 0.16027164 C104.94260444 0.16437344 107.30373179 0.16729756 109.66486168 0.17006683 C113.36912069 0.1749529 117.07332907 0.18514454 120.7775631 0.19950485 C122.79053818 0.20620048 124.80352757 0.20803319 126.81651306 0.20974731 C128.00684647 0.21545746 129.19717987 0.2211676 130.42358398 0.22705078 C131.98181271 0.23151278 131.98181271 0.23151278 133.57152081 0.23606491 C136.02131653 0.36749268 136.02131653 0.36749268 138.02131653 1.36749268 C138.02131653 2.02749268 138.02131653 2.68749268 138.02131653 3.36749268 C89.84131653 3.36749268 41.66131653 3.36749268 -7.97868347 3.36749268 C-7.97868347 63.42749268 -7.97868347 123.48749268 -7.97868347 185.36749268 C-8.96868347 185.03749268 -9.95868347 184.70749268 -10.97868347 184.36749268 C-11.09537489 160.81989784 -11.18360204 137.2723462 -11.23774433 113.72452068 C-11.26354936 102.79136693 -11.2987438 91.85839261 -11.35588074 80.925354 C-11.40564532 71.39847584 -11.43795775 61.87172757 -11.44912595 52.34472305 C-11.45565649 47.29803346 -11.47105269 42.25171558 -11.50733376 37.20514488 C-11.54118358 32.45844998 -11.55175881 27.71228112 -11.54422188 22.96547699 C-11.54560137 21.2203085 -11.55559943 19.47512305 -11.57471085 17.73005867 C-11.59947818 15.35262457 -11.59365036 12.97719366 -11.57995605 10.59971619 C-11.59452026 9.90419307 -11.60908447 9.20866995 -11.62409002 8.49207038 C-11.59392262 6.56338024 -11.59392262 6.56338024 -10.97868347 3.36749268 C-7.52957459 0.29274234 -4.51142435 -0.00636211 0 0 Z " fill="#8BE4EE" transform="translate(127.97868347167969,52.63250732421875)"/>
<path d="M0 0 C32.34 0 64.68 0 98 0 C98 1.98 98 3.96 98 6 C65.66 6 33.32 6 0 6 C0 4.02 0 2.04 0 0 Z " fill="#FEFEFE" transform="translate(144,149)"/>
<path d="M0 0 C32.34 0 64.68 0 98 0 C98 1.98 98 3.96 98 6 C65.66 6 33.32 6 0 6 C0 4.02 0 2.04 0 0 Z " fill="#FDFEFE" transform="translate(144,121)"/>
<path d="M0 0 C7.92 0 15.84 0 24 0 C24 7.92 24 15.84 24 24 C16.08 24 8.16 24 0 24 C0 16.08 0 8.16 0 0 Z " fill="#EDEDED" transform="translate(336,336)"/>
<path d="M0 0 C7.92 0 15.84 0 24 0 C24 7.92 24 15.84 24 24 C16.08 24 8.16 24 0 24 C0 16.08 0 8.16 0 0 Z " fill="#FFFFFF" transform="translate(312,336)"/>
<path d="M0 0 C7.92 0 15.84 0 24 0 C24 7.92 24 15.84 24 24 C16.08 24 8.16 24 0 24 C0 16.08 0 8.16 0 0 Z " fill="#EDEDED" transform="translate(288,336)"/>
<path d="M0 0 C7.92 0 15.84 0 24 0 C24 7.92 24 15.84 24 24 C16.08 24 8.16 24 0 24 C0 16.08 0 8.16 0 0 Z " fill="#FFFFFF" transform="translate(264,336)"/>
<path d="M0 0 C7.92 0 15.84 0 24 0 C24 7.92 24 15.84 24 24 C16.08 24 8.16 24 0 24 C0 16.08 0 8.16 0 0 Z " fill="#EDEDED" transform="translate(240,336)"/>
<path d="M0 0 C7.92 0 15.84 0 24 0 C24 7.92 24 15.84 24 24 C16.08 24 8.16 24 0 24 C0 16.08 0 8.16 0 0 Z " fill="#FFFFFF" transform="translate(216,336)"/>
<path d="M0 0 C7.92 0 15.84 0 24 0 C24 7.92 24 15.84 24 24 C16.08 24 8.16 24 0 24 C0 16.08 0 8.16 0 0 Z " fill="#EDEDED" transform="translate(192,336)"/>
<path d="M0 0 C7.92 0 15.84 0 24 0 C24 7.92 24 15.84 24 24 C16.08 24 8.16 24 0 24 C0 16.08 0 8.16 0 0 Z " fill="#FFFFFF" transform="translate(168,336)"/>
<path d="M0 0 C7.92 0 15.84 0 24 0 C24 7.92 24 15.84 24 24 C16.08 24 8.16 24 0 24 C0 16.08 0 8.16 0 0 Z " fill="#EDEDED" transform="translate(144,336)"/>
<path d="M0 0 C7.92 0 15.84 0 24 0 C24 7.92 24 15.84 24 24 C16.08 24 8.16 24 0 24 C0 16.08 0 8.16 0 0 Z " fill="#FFFFFF" transform="translate(120,336)"/>
<path d="M0 0 C7.92 0 15.84 0 24 0 C24 7.92 24 15.84 24 24 C16.08 24 8.16 24 0 24 C0 16.08 0 8.16 0 0 Z " fill="#EDEDED" transform="translate(96,336)"/>
<path d="M0 0 C7.92 0 15.84 0 24 0 C24 7.92 24 15.84 24 24 C16.08 24 8.16 24 0 24 C0 16.08 0 8.16 0 0 Z " fill="#FFFFFF" transform="translate(72,336)"/>
<path d="M0 0 C7.92 0 15.84 0 24 0 C24 7.92 24 15.84 24 24 C16.08 24 8.16 24 0 24 C0 16.08 0 8.16 0 0 Z " fill="#EDEDED" transform="translate(48,336)"/>
<path d="M0 0 C7.92 0 15.84 0 24 0 C24 7.92 24 15.84 24 24 C16.08 24 8.16 24 0 24 C0 16.08 0 8.16 0 0 Z " fill="#FFFFFF" transform="translate(24,336)"/>
<path d="M0 0 C7.92 0 15.84 0 24 0 C24 7.92 24 15.84 24 24 C16.08 24 8.16 24 0 24 C0 16.08 0 8.16 0 0 Z " fill="#EDEDED" transform="translate(0,336)"/>
<path d="M0 0 C7.92 0 15.84 0 24 0 C24 7.92 24 15.84 24 24 C16.08 24 8.16 24 0 24 C0 16.08 0 8.16 0 0 Z " fill="#FFFFFF" transform="translate(336,312)"/>
<path d="M0 0 C7.92 0 15.84 0 24 0 C24 7.92 24 15.84 24 24 C16.08 24 8.16 24 0 24 C0 16.08 0 8.16 0 0 Z " fill="#EDEDED" transform="translate(312,312)"/>
<path d="M0 0 C7.92 0 15.84 0 24 0 C24 7.92 24 15.84 24 24 C16.08 24 8.16 24 0 24 C0 16.08 0 8.16 0 0 Z " fill="#FFFFFF" transform="translate(288,312)"/>
<path d="M0 0 C7.92 0 15.84 0 24 0 C24 7.92 24 15.84 24 24 C16.08 24 8.16 24 0 24 C0 16.08 0 8.16 0 0 Z " fill="#FFFFFF" transform="translate(144,312)"/>
<path d="M0 0 C7.92 0 15.84 0 24 0 C24 7.92 24 15.84 24 24 C16.08 24 8.16 24 0 24 C0 16.08 0 8.16 0 0 Z " fill="#EDEDED" transform="translate(120,312)"/>
<path d="M0 0 C7.92 0 15.84 0 24 0 C24 7.92 24 15.84 24 24 C16.08 24 8.16 24 0 24 C0 16.08 0 8.16 0 0 Z " fill="#FFFFFF" transform="translate(96,312)"/>
<path d="M0 0 C7.92 0 15.84 0 24 0 C24 7.92 24 15.84 24 24 C16.08 24 8.16 24 0 24 C0 16.08 0 8.16 0 0 Z " fill="#EDEDED" transform="translate(72,312)"/>
<path d="M0 0 C7.92 0 15.84 0 24 0 C24 7.92 24 15.84 24 24 C16.08 24 8.16 24 0 24 C0 16.08 0 8.16 0 0 Z " fill="#FFFFFF" transform="translate(48,312)"/>
<path d="M0 0 C7.92 0 15.84 0 24 0 C24 7.92 24 15.84 24 24 C16.08 24 8.16 24 0 24 C0 16.08 0 8.16 0 0 Z " fill="#EDEDED" transform="translate(24,312)"/>
<path d="M0 0 C7.92 0 15.84 0 24 0 C24 7.92 24 15.84 24 24 C16.08 24 8.16 24 0 24 C0 16.08 0 8.16 0 0 Z " fill="#FFFFFF" transform="translate(0,312)"/>
<path d="M0 0 C7.92 0 15.84 0 24 0 C24 7.92 24 15.84 24 24 C16.08 24 8.16 24 0 24 C0 16.08 0 8.16 0 0 Z " fill="#EDEDED" transform="translate(336,288)"/>
<path d="M0 0 C7.92 0 15.84 0 24 0 C24 7.92 24 15.84 24 24 C16.08 24 8.16 24 0 24 C0 16.08 0 8.16 0 0 Z " fill="#FFFFFF" transform="translate(312,288)"/>
<path d="M0 0 C7.92 0 15.84 0 24 0 C24 7.92 24 15.84 24 24 C16.08 24 8.16 24 0 24 C0 16.08 0 8.16 0 0 Z " fill="#EDEDED" transform="translate(288,288)"/>
<path d="M0 0 C7.92 0 15.84 0 24 0 C24 7.92 24 15.84 24 24 C16.08 24 8.16 24 0 24 C0 16.08 0 8.16 0 0 Z " fill="#EDEDED" transform="translate(48,288)"/>
<path d="M0 0 C7.92 0 15.84 0 24 0 C24 7.92 24 15.84 24 24 C16.08 24 8.16 24 0 24 C0 16.08 0 8.16 0 0 Z " fill="#FFFFFF" transform="translate(24,288)"/>
<path d="M0 0 C7.92 0 15.84 0 24 0 C24 7.92 24 15.84 24 24 C16.08 24 8.16 24 0 24 C0 16.08 0 8.16 0 0 Z " fill="#EDEDED" transform="translate(0,288)"/>
<path d="M0 0 C7.92 0 15.84 0 24 0 C24 7.92 24 15.84 24 24 C16.08 24 8.16 24 0 24 C0 16.08 0 8.16 0 0 Z " fill="#FFFFFF" transform="translate(336,264)"/>
<path d="M0 0 C7.92 0 15.84 0 24 0 C24 7.92 24 15.84 24 24 C16.08 24 8.16 24 0 24 C0 16.08 0 8.16 0 0 Z " fill="#EDEDED" transform="translate(312,264)"/>
<path d="M0 0 C7.92 0 15.84 0 24 0 C24 7.92 24 15.84 24 24 C16.08 24 8.16 24 0 24 C0 16.08 0 8.16 0 0 Z " fill="#FFFFFF" transform="translate(288,264)"/>
<path d="M0 0 C7.92 0 15.84 0 24 0 C24 7.92 24 15.84 24 24 C16.08 24 8.16 24 0 24 C0 16.08 0 8.16 0 0 Z " fill="#EDEDED" transform="translate(264,264)"/>
<path d="M0 0 C7.92 0 15.84 0 24 0 C24 7.92 24 15.84 24 24 C16.08 24 8.16 24 0 24 C0 16.08 0 8.16 0 0 Z " fill="#FFFFFF" transform="translate(240,264)"/>
<path d="M0 0 C7.92 0 15.84 0 24 0 C24 7.92 24 15.84 24 24 C16.08 24 8.16 24 0 24 C0 16.08 0 8.16 0 0 Z " fill="#FFFFFF" transform="translate(48,264)"/>
<path d="M0 0 C7.92 0 15.84 0 24 0 C24 7.92 24 15.84 24 24 C16.08 24 8.16 24 0 24 C0 16.08 0 8.16 0 0 Z " fill="#EDEDED" transform="translate(24,264)"/>
<path d="M0 0 C7.92 0 15.84 0 24 0 C24 7.92 24 15.84 24 24 C16.08 24 8.16 24 0 24 C0 16.08 0 8.16 0 0 Z " fill="#FFFFFF" transform="translate(0,264)"/>
<path d="M0 0 C7.92 0 15.84 0 24 0 C24 7.92 24 15.84 24 24 C16.08 24 8.16 24 0 24 C0 16.08 0 8.16 0 0 Z " fill="#EDEDED" transform="translate(336,240)"/>
<path d="M0 0 C7.92 0 15.84 0 24 0 C24 7.92 24 15.84 24 24 C16.08 24 8.16 24 0 24 C0 16.08 0 8.16 0 0 Z " fill="#FFFFFF" transform="translate(312,240)"/>
<path d="M0 0 C7.92 0 15.84 0 24 0 C24 7.92 24 15.84 24 24 C16.08 24 8.16 24 0 24 C0 16.08 0 8.16 0 0 Z " fill="#FFFFFF" transform="translate(264,240)"/>
<path d="M0 0 C7.92 0 15.84 0 24 0 C24 7.92 24 15.84 24 24 C16.08 24 8.16 24 0 24 C0 16.08 0 8.16 0 0 Z " fill="#FFFFFF" transform="translate(72,240)"/>
<path d="M0 0 C7.92 0 15.84 0 24 0 C24 7.92 24 15.84 24 24 C16.08 24 8.16 24 0 24 C0 16.08 0 8.16 0 0 Z " fill="#EDEDED" transform="translate(48,240)"/>
<path d="M0 0 C7.92 0 15.84 0 24 0 C24 7.92 24 15.84 24 24 C16.08 24 8.16 24 0 24 C0 16.08 0 8.16 0 0 Z " fill="#FFFFFF" transform="translate(24,240)"/>
<path d="M0 0 C7.92 0 15.84 0 24 0 C24 7.92 24 15.84 24 24 C16.08 24 8.16 24 0 24 C0 16.08 0 8.16 0 0 Z " fill="#EDEDED" transform="translate(0,240)"/>
<path d="M0 0 C7.92 0 15.84 0 24 0 C24 7.92 24 15.84 24 24 C16.08 24 8.16 24 0 24 C0 16.08 0 8.16 0 0 Z " fill="#FFFFFF" transform="translate(336,216)"/>
<path d="M0 0 C7.92 0 15.84 0 24 0 C24 7.92 24 15.84 24 24 C16.08 24 8.16 24 0 24 C0 16.08 0 8.16 0 0 Z " fill="#EDEDED" transform="translate(312,216)"/>
<path d="M0 0 C7.92 0 15.84 0 24 0 C24 7.92 24 15.84 24 24 C16.08 24 8.16 24 0 24 C0 16.08 0 8.16 0 0 Z " fill="#FFFFFF" transform="translate(288,216)"/>
<path d="M0 0 C7.92 0 15.84 0 24 0 C24 7.92 24 15.84 24 24 C16.08 24 8.16 24 0 24 C0 16.08 0 8.16 0 0 Z " fill="#EDEDED" transform="translate(72,216)"/>
<path d="M0 0 C7.92 0 15.84 0 24 0 C24 7.92 24 15.84 24 24 C16.08 24 8.16 24 0 24 C0 16.08 0 8.16 0 0 Z " fill="#FFFFFF" transform="translate(48,216)"/>
<path d="M0 0 C7.92 0 15.84 0 24 0 C24 7.92 24 15.84 24 24 C16.08 24 8.16 24 0 24 C0 16.08 0 8.16 0 0 Z " fill="#EDEDED" transform="translate(24,216)"/>
<path d="M0 0 C7.92 0 15.84 0 24 0 C24 7.92 24 15.84 24 24 C16.08 24 8.16 24 0 24 C0 16.08 0 8.16 0 0 Z " fill="#FFFFFF" transform="translate(0,216)"/>
<path d="M0 0 C7.92 0 15.84 0 24 0 C24 7.92 24 15.84 24 24 C16.08 24 8.16 24 0 24 C0 16.08 0 8.16 0 0 Z " fill="#EDEDED" transform="translate(336,192)"/>
<path d="M0 0 C7.92 0 15.84 0 24 0 C24 7.92 24 15.84 24 24 C16.08 24 8.16 24 0 24 C0 16.08 0 8.16 0 0 Z " fill="#FFFFFF" transform="translate(312,192)"/>
<path d="M0 0 C7.92 0 15.84 0 24 0 C24 7.92 24 15.84 24 24 C16.08 24 8.16 24 0 24 C0 16.08 0 8.16 0 0 Z " fill="#EDEDED" transform="translate(288,192)"/>
<path d="M0 0 C7.92 0 15.84 0 24 0 C24 7.92 24 15.84 24 24 C16.08 24 8.16 24 0 24 C0 16.08 0 8.16 0 0 Z " fill="#EDEDED" transform="translate(48,192)"/>
<path d="M0 0 C7.92 0 15.84 0 24 0 C24 7.92 24 15.84 24 24 C16.08 24 8.16 24 0 24 C0 16.08 0 8.16 0 0 Z " fill="#FFFFFF" transform="translate(24,192)"/>
<path d="M0 0 C7.92 0 15.84 0 24 0 C24 7.92 24 15.84 24 24 C16.08 24 8.16 24 0 24 C0 16.08 0 8.16 0 0 Z " fill="#EDEDED" transform="translate(0,192)"/>
<path d="M0 0 C7.92 0 15.84 0 24 0 C24 7.92 24 15.84 24 24 C16.08 24 8.16 24 0 24 C0 16.08 0 8.16 0 0 Z " fill="#FFFFFF" transform="translate(336,168)"/>
<path d="M0 0 C7.92 0 15.84 0 24 0 C24 7.92 24 15.84 24 24 C16.08 24 8.16 24 0 24 C0 16.08 0 8.16 0 0 Z " fill="#EDEDED" transform="translate(312,168)"/>
<path d="M0 0 C7.92 0 15.84 0 24 0 C24 7.92 24 15.84 24 24 C16.08 24 8.16 24 0 24 C0 16.08 0 8.16 0 0 Z " fill="#FFFFFF" transform="translate(288,168)"/>
<path d="M0 0 C7.92 0 15.84 0 24 0 C24 7.92 24 15.84 24 24 C16.08 24 8.16 24 0 24 C0 16.08 0 8.16 0 0 Z " fill="#EDEDED" transform="translate(72,168)"/>
<path d="M0 0 C7.92 0 15.84 0 24 0 C24 7.92 24 15.84 24 24 C16.08 24 8.16 24 0 24 C0 16.08 0 8.16 0 0 Z " fill="#FFFFFF" transform="translate(48,168)"/>
<path d="M0 0 C7.92 0 15.84 0 24 0 C24 7.92 24 15.84 24 24 C16.08 24 8.16 24 0 24 C0 16.08 0 8.16 0 0 Z " fill="#EDEDED" transform="translate(24,168)"/>
<path d="M0 0 C7.92 0 15.84 0 24 0 C24 7.92 24 15.84 24 24 C16.08 24 8.16 24 0 24 C0 16.08 0 8.16 0 0 Z " fill="#FFFFFF" transform="translate(0,168)"/>
<path d="M0 0 C7.92 0 15.84 0 24 0 C24 7.92 24 15.84 24 24 C16.08 24 8.16 24 0 24 C0 16.08 0 8.16 0 0 Z " fill="#EDEDED" transform="translate(336,144)"/>
<path d="M0 0 C7.92 0 15.84 0 24 0 C24 7.92 24 15.84 24 24 C16.08 24 8.16 24 0 24 C0 16.08 0 8.16 0 0 Z " fill="#FFFFFF" transform="translate(312,144)"/>
<path d="M0 0 C7.92 0 15.84 0 24 0 C24 7.92 24 15.84 24 24 C16.08 24 8.16 24 0 24 C0 16.08 0 8.16 0 0 Z " fill="#EDEDED" transform="translate(288,144)"/>
<path d="M0 0 C7.92 0 15.84 0 24 0 C24 7.92 24 15.84 24 24 C16.08 24 8.16 24 0 24 C0 16.08 0 8.16 0 0 Z " fill="#EDEDED" transform="translate(48,144)"/>
<path d="M0 0 C7.92 0 15.84 0 24 0 C24 7.92 24 15.84 24 24 C16.08 24 8.16 24 0 24 C0 16.08 0 8.16 0 0 Z " fill="#FFFFFF" transform="translate(24,144)"/>
<path d="M0 0 C7.92 0 15.84 0 24 0 C24 7.92 24 15.84 24 24 C16.08 24 8.16 24 0 24 C0 16.08 0 8.16 0 0 Z " fill="#EDEDED" transform="translate(0,144)"/>
<path d="M0 0 C7.92 0 15.84 0 24 0 C24 7.92 24 15.84 24 24 C16.08 24 8.16 24 0 24 C0 16.08 0 8.16 0 0 Z " fill="#FFFFFF" transform="translate(336,120)"/>
<path d="M0 0 C7.92 0 15.84 0 24 0 C24 7.92 24 15.84 24 24 C16.08 24 8.16 24 0 24 C0 16.08 0 8.16 0 0 Z " fill="#EDEDED" transform="translate(312,120)"/>
<path d="M0 0 C7.92 0 15.84 0 24 0 C24 7.92 24 15.84 24 24 C16.08 24 8.16 24 0 24 C0 16.08 0 8.16 0 0 Z " fill="#FFFFFF" transform="translate(288,120)"/>
<path d="M0 0 C7.92 0 15.84 0 24 0 C24 7.92 24 15.84 24 24 C16.08 24 8.16 24 0 24 C0 16.08 0 8.16 0 0 Z " fill="#EDEDED" transform="translate(72,120)"/>
<path d="M0 0 C7.92 0 15.84 0 24 0 C24 7.92 24 15.84 24 24 C16.08 24 8.16 24 0 24 C0 16.08 0 8.16 0 0 Z " fill="#FFFFFF" transform="translate(48,120)"/>
<path d="M0 0 C7.92 0 15.84 0 24 0 C24 7.92 24 15.84 24 24 C16.08 24 8.16 24 0 24 C0 16.08 0 8.16 0 0 Z " fill="#EDEDED" transform="translate(24,120)"/>
<path d="M0 0 C7.92 0 15.84 0 24 0 C24 7.92 24 15.84 24 24 C16.08 24 8.16 24 0 24 C0 16.08 0 8.16 0 0 Z " fill="#FFFFFF" transform="translate(0,120)"/>
<path d="M0 0 C7.92 0 15.84 0 24 0 C24 7.92 24 15.84 24 24 C16.08 24 8.16 24 0 24 C0 16.08 0 8.16 0 0 Z " fill="#EDEDED" transform="translate(336,96)"/>
<path d="M0 0 C7.92 0 15.84 0 24 0 C24 7.92 24 15.84 24 24 C16.08 24 8.16 24 0 24 C0 16.08 0 8.16 0 0 Z " fill="#FFFFFF" transform="translate(312,96)"/>
<path d="M0 0 C7.92 0 15.84 0 24 0 C24 7.92 24 15.84 24 24 C16.08 24 8.16 24 0 24 C0 16.08 0 8.16 0 0 Z " fill="#EDEDED" transform="translate(288,96)"/>
<path d="M0 0 C7.92 0 15.84 0 24 0 C24 7.92 24 15.84 24 24 C16.08 24 8.16 24 0 24 C0 16.08 0 8.16 0 0 Z " fill="#FFFFFF" transform="translate(72,96)"/>
<path d="M0 0 C7.92 0 15.84 0 24 0 C24 7.92 24 15.84 24 24 C16.08 24 8.16 24 0 24 C0 16.08 0 8.16 0 0 Z " fill="#EDEDED" transform="translate(48,96)"/>
<path d="M0 0 C7.92 0 15.84 0 24 0 C24 7.92 24 15.84 24 24 C16.08 24 8.16 24 0 24 C0 16.08 0 8.16 0 0 Z " fill="#FFFFFF" transform="translate(24,96)"/>
<path d="M0 0 C7.92 0 15.84 0 24 0 C24 7.92 24 15.84 24 24 C16.08 24 8.16 24 0 24 C0 16.08 0 8.16 0 0 Z " fill="#EDEDED" transform="translate(0,96)"/>
<path d="M0 0 C7.92 0 15.84 0 24 0 C24 7.92 24 15.84 24 24 C16.08 24 8.16 24 0 24 C0 16.08 0 8.16 0 0 Z " fill="#FFFFFF" transform="translate(336,72)"/>
<path d="M0 0 C7.92 0 15.84 0 24 0 C24 7.92 24 15.84 24 24 C16.08 24 8.16 24 0 24 C0 16.08 0 8.16 0 0 Z " fill="#EDEDED" transform="translate(312,72)"/>
<path d="M0 0 C7.92 0 15.84 0 24 0 C24 7.92 24 15.84 24 24 C16.08 24 8.16 24 0 24 C0 16.08 0 8.16 0 0 Z " fill="#FFFFFF" transform="translate(288,72)"/>
<path d="M0 0 C7.92 0 15.84 0 24 0 C24 7.92 24 15.84 24 24 C16.08 24 8.16 24 0 24 C0 16.08 0 8.16 0 0 Z " fill="#EDEDED" transform="translate(72,72)"/>
<path d="M0 0 C7.92 0 15.84 0 24 0 C24 7.92 24 15.84 24 24 C16.08 24 8.16 24 0 24 C0 16.08 0 8.16 0 0 Z " fill="#FFFFFF" transform="translate(48,72)"/>
<path d="M0 0 C7.92 0 15.84 0 24 0 C24 7.92 24 15.84 24 24 C16.08 24 8.16 24 0 24 C0 16.08 0 8.16 0 0 Z " fill="#EDEDED" transform="translate(24,72)"/>
<path d="M0 0 C7.92 0 15.84 0 24 0 C24 7.92 24 15.84 24 24 C16.08 24 8.16 24 0 24 C0 16.08 0 8.16 0 0 Z " fill="#FFFFFF" transform="translate(0,72)"/>
<path d="M0 0 C7.92 0 15.84 0 24 0 C24 7.92 24 15.84 24 24 C16.08 24 8.16 24 0 24 C0 16.08 0 8.16 0 0 Z " fill="#EDEDED" transform="translate(336,48)"/>
<path d="M0 0 C7.92 0 15.84 0 24 0 C24 7.92 24 15.84 24 24 C16.08 24 8.16 24 0 24 C0 16.08 0 8.16 0 0 Z " fill="#FFFFFF" transform="translate(312,48)"/>
<path d="M0 0 C7.92 0 15.84 0 24 0 C24 7.92 24 15.84 24 24 C16.08 24 8.16 24 0 24 C0 16.08 0 8.16 0 0 Z " fill="#EDEDED" transform="translate(288,48)"/>
<path d="M0 0 C7.92 0 15.84 0 24 0 C24 7.92 24 15.84 24 24 C16.08 24 8.16 24 0 24 C0 16.08 0 8.16 0 0 Z " fill="#FFFFFF" transform="translate(72,48)"/>
<path d="M0 0 C7.92 0 15.84 0 24 0 C24 7.92 24 15.84 24 24 C16.08 24 8.16 24 0 24 C0 16.08 0 8.16 0 0 Z " fill="#EDEDED" transform="translate(48,48)"/>
<path d="M0 0 C7.92 0 15.84 0 24 0 C24 7.92 24 15.84 24 24 C16.08 24 8.16 24 0 24 C0 16.08 0 8.16 0 0 Z " fill="#FFFFFF" transform="translate(24,48)"/>
<path d="M0 0 C7.92 0 15.84 0 24 0 C24 7.92 24 15.84 24 24 C16.08 24 8.16 24 0 24 C0 16.08 0 8.16 0 0 Z " fill="#EDEDED" transform="translate(0,48)"/>
<path d="M0 0 C7.92 0 15.84 0 24 0 C24 7.92 24 15.84 24 24 C16.08 24 8.16 24 0 24 C0 16.08 0 8.16 0 0 Z " fill="#FFFFFF" transform="translate(336,24)"/>
<path d="M0 0 C7.92 0 15.84 0 24 0 C24 7.92 24 15.84 24 24 C16.08 24 8.16 24 0 24 C0 16.08 0 8.16 0 0 Z " fill="#EDEDED" transform="translate(312,24)"/>
<path d="M0 0 C7.92 0 15.84 0 24 0 C24 7.92 24 15.84 24 24 C16.08 24 8.16 24 0 24 C0 16.08 0 8.16 0 0 Z " fill="#FFFFFF" transform="translate(288,24)"/>
<path d="M0 0 C7.92 0 15.84 0 24 0 C24 7.92 24 15.84 24 24 C16.08 24 8.16 24 0 24 C0 16.08 0 8.16 0 0 Z " fill="#EDEDED" transform="translate(72,24)"/>
<path d="M0 0 C7.92 0 15.84 0 24 0 C24 7.92 24 15.84 24 24 C16.08 24 8.16 24 0 24 C0 16.08 0 8.16 0 0 Z " fill="#FFFFFF" transform="translate(48,24)"/>
<path d="M0 0 C7.92 0 15.84 0 24 0 C24 7.92 24 15.84 24 24 C16.08 24 8.16 24 0 24 C0 16.08 0 8.16 0 0 Z " fill="#EDEDED" transform="translate(24,24)"/>
<path d="M0 0 C7.92 0 15.84 0 24 0 C24 7.92 24 15.84 24 24 C16.08 24 8.16 24 0 24 C0 16.08 0 8.16 0 0 Z " fill="#FFFFFF" transform="translate(0,24)"/>
<path d="M0 0 C7.92 0 15.84 0 24 0 C24 7.92 24 15.84 24 24 C16.08 24 8.16 24 0 24 C0 16.08 0 8.16 0 0 Z " fill="#EDEDED" transform="translate(336,0)"/>
<path d="M0 0 C7.92 0 15.84 0 24 0 C24 7.92 24 15.84 24 24 C16.08 24 8.16 24 0 24 C0 16.08 0 8.16 0 0 Z " fill="#FFFFFF" transform="translate(312,0)"/>
<path d="M0 0 C7.92 0 15.84 0 24 0 C24 7.92 24 15.84 24 24 C16.08 24 8.16 24 0 24 C0 16.08 0 8.16 0 0 Z " fill="#EDEDED" transform="translate(288,0)"/>
<path d="M0 0 C7.92 0 15.84 0 24 0 C24 7.92 24 15.84 24 24 C16.08 24 8.16 24 0 24 C0 16.08 0 8.16 0 0 Z " fill="#FFFFFF" transform="translate(264,0)"/>
<path d="M0 0 C7.92 0 15.84 0 24 0 C24 7.92 24 15.84 24 24 C16.08 24 8.16 24 0 24 C0 16.08 0 8.16 0 0 Z " fill="#EDEDED" transform="translate(240,0)"/>
<path d="M0 0 C7.92 0 15.84 0 24 0 C24 7.92 24 15.84 24 24 C16.08 24 8.16 24 0 24 C0 16.08 0 8.16 0 0 Z " fill="#FFFFFF" transform="translate(216,0)"/>
<path d="M0 0 C7.92 0 15.84 0 24 0 C24 7.92 24 15.84 24 24 C16.08 24 8.16 24 0 24 C0 16.08 0 8.16 0 0 Z " fill="#EDEDED" transform="translate(192,0)"/>
<path d="M0 0 C7.92 0 15.84 0 24 0 C24 7.92 24 15.84 24 24 C16.08 24 8.16 24 0 24 C0 16.08 0 8.16 0 0 Z " fill="#FFFFFF" transform="translate(168,0)"/>
<path d="M0 0 C7.92 0 15.84 0 24 0 C24 7.92 24 15.84 24 24 C16.08 24 8.16 24 0 24 C0 16.08 0 8.16 0 0 Z " fill="#EDEDED" transform="translate(144,0)"/>
<path d="M0 0 C7.92 0 15.84 0 24 0 C24 7.92 24 15.84 24 24 C16.08 24 8.16 24 0 24 C0 16.08 0 8.16 0 0 Z " fill="#FFFFFF" transform="translate(120,0)"/>
<path d="M0 0 C7.92 0 15.84 0 24 0 C24 7.92 24 15.84 24 24 C16.08 24 8.16 24 0 24 C0 16.08 0 8.16 0 0 Z " fill="#EDEDED" transform="translate(96,0)"/>
<path d="M0 0 C7.92 0 15.84 0 24 0 C24 7.92 24 15.84 24 24 C16.08 24 8.16 24 0 24 C0 16.08 0 8.16 0 0 Z " fill="#FFFFFF" transform="translate(72,0)"/>
<path d="M0 0 C7.92 0 15.84 0 24 0 C24 7.92 24 15.84 24 24 C16.08 24 8.16 24 0 24 C0 16.08 0 8.16 0 0 Z " fill="#EDEDED" transform="translate(48,0)"/>
<path d="M0 0 C7.92 0 15.84 0 24 0 C24 7.92 24 15.84 24 24 C16.08 24 8.16 24 0 24 C0 16.08 0 8.16 0 0 Z " fill="#EDEDED" transform="translate(0,0)"/>
<path d="M0 0 C1.14418396 -0.00426498 2.28836792 -0.00852997 3.46722412 -0.01292419 C5.35927582 -0.01224442 5.35927582 -0.01224442 7.28955078 -0.0115509 C8.62648615 -0.01454184 9.96342065 -0.01794421 11.300354 -0.02172852 C14.93662213 -0.03057836 18.57286674 -0.03290701 22.20914459 -0.0335443 C25.24115944 -0.0344925 28.27316877 -0.03816967 31.3051815 -0.0417164 C38.45557305 -0.04986432 45.605952 -0.05230028 52.75634766 -0.05158997 C60.14200015 -0.05098873 67.5275797 -0.06154886 74.91321373 -0.07733363 C81.24699435 -0.09038991 87.58075107 -0.09577469 93.91454506 -0.09513456 C97.70068549 -0.09487905 101.48676111 -0.09775919 105.27288818 -0.10831261 C108.83184587 -0.11796179 112.39067632 -0.11809482 115.94963837 -0.11079597 C117.88393262 -0.10924425 119.81822677 -0.11761859 121.75250244 -0.12623596 C123.46877838 -0.11994423 123.46877838 -0.11994423 125.21972656 -0.11352539 C126.71743088 -0.11434254 126.71743088 -0.11434254 128.24539185 -0.1151762 C130.60986328 0.13371277 130.60986328 0.13371277 132.60986328 2.13371277 C132.96443918 4.89940477 133.08733165 6.46651052 131.43794537 8.7713213 C128.9048152 10.65915498 127.19157205 10.50310447 124.04804993 10.49447632 C122.89118683 10.49860031 121.73432373 10.5027243 120.54240417 10.50697327 C119.27213882 10.49618744 118.00187347 10.48540161 116.69311523 10.47428894 C115.34293639 10.47344279 113.99275617 10.47391758 112.64257812 10.47561646 C108.97539675 10.4764783 105.30850888 10.45882218 101.64139581 10.43789458 C97.80970762 10.41915919 93.97801294 10.41737982 90.14628601 10.41381836 C82.88958922 10.40448864 75.63302778 10.37986239 68.37639064 10.34976989 C60.11531234 10.31625465 51.85422763 10.29974712 43.59309828 10.28468359 C26.59860828 10.25331359 9.60425009 10.20053516 -7.39013672 10.13371277 C-7.72013672 8.81371277 -8.05013672 7.49371277 -8.39013672 6.13371277 C-7.40013672 6.46371277 -6.41013672 6.79371277 -5.39013672 7.13371277 C-3.56332065 7.22444407 -1.73331814 7.25566558 0.0957489 7.25396729 C1.23578369 7.25534195 2.37581848 7.25671661 3.55039978 7.25813293 C4.80196365 7.25453766 6.05352753 7.25094238 7.34301758 7.24723816 C9.31877274 7.2474572 9.31877274 7.2474572 11.33444214 7.24768066 C14.94779922 7.24796792 18.56112319 7.24208272 22.17447257 7.23510671 C25.9501197 7.22886129 29.72576757 7.22826843 33.50141907 7.2270813 C40.65181029 7.22397149 47.80218624 7.21576282 54.95257074 7.20573181 C63.09274934 7.1945598 71.23292867 7.18905748 79.37311304 7.18403637 C96.11870539 7.17357993 112.86428239 7.15598725 129.60986328 7.13371277 C129.60986328 5.81371277 129.60986328 4.49371277 129.60986328 3.13371277 C84.39986328 3.13371277 39.18986328 3.13371277 -7.39013672 3.13371277 C-7.72013672 3.79371277 -8.05013672 4.45371277 -8.39013672 5.13371277 C-8.01513672 3.19621277 -8.01513672 3.19621277 -7.39013672 1.13371277 C-4.79317813 -0.16476653 -2.90919184 0.00488283 0 0 Z " fill="#2E2C2D" transform="translate(87.39013671875,280.8662872314453)"/>
<path d="M0 0 C7.92 0 15.84 0 24 0 C24 5.94 24 11.88 24 18 C25.32 18.66 26.64 19.32 28 20 C26.07942708 20.71614583 24.15885417 21.43229167 22.23828125 22.1484375 C19.96175004 22.97421012 19.96175004 22.97421012 17.71875 24.125 C14.1234108 25.28212066 10.87993675 24.9775057 7.1875 24.625 C3.6296875 24.315625 3.6296875 24.315625 0 24 C0 16.08 0 8.16 0 0 Z " fill="#FEFEFE" transform="translate(96,24)"/>
<path d="M0 0 C7.92 0 15.84 0 24 0 C24 7.92 24 15.84 24 24 C22.06125 24.12375 20.1225 24.2475 18.125 24.375 C13.53630027 24.46618526 13.53630027 24.46618526 10 27 C9.649375 26.566875 9.29875 26.13375 8.9375 25.6875 C6.43644858 23.33503728 6.43644858 23.33503728 0 21 C0 14.07 0 7.14 0 0 Z " fill="#ECECEC" transform="translate(264,24)"/>
<path d="M0 0 C0.99 0.33 1.98 0.66 3 1 C3 4.63 3 8.26 3 12 C1.35 12.33 -0.3 12.66 -2 13 C-2.33 13.33 -2.66 13.66 -3 14 C-6.01350238 14.09529612 -9.00404106 14.12551904 -12.01782227 14.11352539 C-12.96406464 14.11367142 -13.91030701 14.11381744 -14.88522339 14.1139679 C-18.02897392 14.11326836 -21.17266601 14.10547409 -24.31640625 14.09765625 C-26.48974068 14.09579221 -28.66307552 14.09436824 -30.83641052 14.09336853 C-36.56901195 14.08954221 -42.30158823 14.07971097 -48.03417969 14.06866455 C-53.87890279 14.05845287 -59.72362993 14.05387143 -65.56835938 14.04882812 C-77.045584 14.0380888 -88.52278991 14.02101102 -100 14 C-101.97387813 9.23947038 -102.0070238 6.03511899 -101 1 C-99.74941299 1.00222061 -98.49882599 1.00444122 -97.21034241 1.00672913 C-85.45245469 1.02695845 -73.69457049 1.04197112 -61.93666935 1.05181217 C-55.89112183 1.05704153 -49.8455883 1.06414014 -43.80004883 1.07543945 C-37.97105712 1.08626645 -32.14207891 1.09227643 -26.31307793 1.09487724 C-24.0838239 1.09673183 -21.85457065 1.10035308 -19.62532234 1.10573006 C-16.51460266 1.11293799 -13.40393951 1.11399105 -10.29321289 1.11352539 C-9.36173431 1.11712067 -8.43025574 1.12071594 -7.47055054 1.12442017 C-3.41400753 1.53158811 -3.41400753 1.53158811 0 0 Z M-99 3 C-99 5.31 -99 7.62 -99 10 C-66.66 10 -34.32 10 -1 10 C-1 7.69 -1 5.38 -1 3 C-33.34 3 -65.68 3 -99 3 Z " fill="#010001" transform="translate(243,89)"/>
<path d="M0 0 C1.32 0.33 2.64 0.66 4 1 C4 3.31 4 5.62 4 8 C5.85375748 7.99333817 5.85375748 7.99333817 7.7449646 7.98654175 C19.37008536 7.94606485 30.99519191 7.91604894 42.62036705 7.89637566 C48.59752709 7.88592157 54.57463042 7.87173279 60.55175781 7.84912109 C66.31591985 7.82745058 72.08002722 7.81544363 77.84422684 7.81024551 C80.04754116 7.80653932 82.25085237 7.79930246 84.45414352 7.78853989 C87.53118192 7.77410193 90.60799199 7.77201882 93.68505859 7.77294922 C94.60359116 7.76575867 95.52212372 7.75856812 96.4684906 7.75115967 C97.30424118 7.753909 98.13999176 7.75665833 99.00106812 7.75949097 C100.0933928 7.75672559 100.0933928 7.75672559 101.20778465 7.75390434 C103 8 103 8 105 10 C105 10.99 105 11.98 105 13 C70.68 13 36.36 13 1 13 C-0.00496852 9.98509443 -0.10335303 7.95818308 -0.0625 4.8125 C-0.05347656 3.91144531 -0.04445312 3.01039062 -0.03515625 2.08203125 C-0.02355469 1.39496094 -0.01195312 0.70789063 0 0 Z " fill="#010405" transform="translate(140,119)"/>
<path d="M0 0 C7.92 0 15.84 0 24 0 C24 7.92 24 15.84 24 24 C18.06 24 12.12 24 6 24 C6 22.68 6 21.36 6 20 C5.34 21.32 4.68 22.64 4 24 C3.71125 22.865625 3.4225 21.73125 3.125 20.5625 C2.75375 19.386875 2.3825 18.21125 2 17 C1.34 16.67 0.68 16.34 0 16 C0 10.72 0 5.44 0 0 Z " fill="#ECECEC" transform="translate(216,264)"/>
<path d="M0 0 C18.48 0 36.96 0 56 0 C56 0.33 56 0.66 56 1 C53.36 1 50.72 1 48 1 C48 7.6 48 14.2 48 21 C40.08 21 32.16 21 24 21 C24 14.4 24 7.8 24 1 C16.08 1 8.16 1 0 1 C0 0.67 0 0.34 0 0 Z " fill="#FEFEFF" transform="translate(96,291)"/>
<path d="M0 0 C7.92 0 15.84 0 24 0 C24 7.92 24 15.84 24 24 C20.37 24.33 16.74 24.66 13 25 C12.34 23.35 11.68 21.7 11 20 C9.04901915 18.04901915 5.35325071 18.74584892 2.68359375 18.68359375 C1.95253922 18.66281265 1.22148468 18.64203156 0.46827698 18.62062073 C-1.87521656 18.55504976 -4.21882539 18.49620568 -6.5625 18.4375 C-8.14779855 18.39432192 -9.73308529 18.35070787 -11.31835938 18.30664062 C-15.21212037 18.1993608 -19.10599772 18.0981151 -23 18 C-23 17.67 -23 17.34 -23 17 C-15.41 17 -7.82 17 0 17 C0 11.39 0 5.78 0 0 Z " fill="#FEFEFE" transform="translate(264,288)"/>
<path d="M0 0 C0 3.57811631 -0.86465142 4.26675381 -3 7 C-4.62613835 11.87841506 -4.22618441 16.89155612 -4.25 22 C-4.270625 23.10601562 -4.29125 24.21203125 -4.3125 25.3515625 C-4.31765625 26.41117188 -4.3228125 27.47078125 -4.328125 28.5625 C-4.3374707 29.53316406 -4.34681641 30.50382812 -4.35644531 31.50390625 C-3.94622078 34.37660185 -3.24533001 35.23930558 -1 37 C-1.99 37 -2.98 37 -4 37 C-4 41.29 -4 45.58 -4 50 C-11.92 50 -19.84 50 -28 50 C-28 46.04 -28 42.08 -28 38 C-28.99 37.67 -29.98 37.34 -31 37 C-29.45049732 35.45049732 -27.90009406 35.78344807 -25.74609375 35.68359375 C-24.9770874 35.64548584 -24.20808105 35.60737793 -23.41577148 35.56811523 C-21.9415271 35.50346069 -21.9415271 35.50346069 -20.4375 35.4375 C-15.7659375 35.2209375 -15.7659375 35.2209375 -11 35 C-10.67 25.1 -10.34 15.2 -10 5 C-9.34 4.67 -8.68 4.34 -8 4 C-7.67 5.65 -7.34 7.3 -7 9 C-6.5875 7.88625 -6.175 6.7725 -5.75 5.625 C-4.64453484 3.00679305 -4.25119213 2.16506911 -1.8125 0.5625 C-1.214375 0.376875 -0.61625 0.19125 0 0 Z " fill="#FEFEFE" transform="translate(244,214)"/>
<path d="M0 0 C0 7.92 0 15.84 0 24 C-7.92 24 -15.84 24 -24 24 C-24 18.06 -24 12.12 -24 6 C-21.03 6 -18.06 6 -15 6 C-13.04664818 3.66209929 -13.04664818 3.66209929 -12 1 C-9 0 -9 0 0 0 Z " fill="#EDEDED" transform="translate(288,312)"/>
<path d="M0 0 C12.93809081 -0.84641716 12.93809081 -0.84641716 15.8671875 1.48828125 C17.0625 3.375 17.0625 3.375 17.91015625 5.2734375 C19.16312536 7.63259023 19.16312536 7.63259023 24 9 C24 13.95 24 18.9 24 24 C16.08 24 8.16 24 0 24 C0 16.08 0 8.16 0 0 Z " fill="#ECECEC" transform="translate(96,240)"/>
<path d="M0 0 C3.3 0 6.6 0 10 0 C10 0.66 10 1.32 10 2 C11.32 2.33 12.64 2.66 14 3 C14 3.66 14 4.32 14 5 C17.3 5.33 20.6 5.66 24 6 C24 11.94 24 17.88 24 24 C16.08 24 8.16 24 0 24 C0 16.08 0 8.16 0 0 Z " fill="#EDEDED" transform="translate(168,312)"/>
<path d="M0 0 C11.22 0 22.44 0 34 0 C33.67 0.99 33.34 1.98 33 3 C30.03 2.67 27.06 2.34 24 2 C24 7.94 24 13.88 24 20 C16.08 20 8.16 20 0 20 C0 13.4 0 6.8 0 0 Z " fill="#FEFEFE" transform="translate(240,316)"/>
<path d="M0 0 C7.92 0 15.84 0 24 0 C24 6.27 24 12.54 24 19 C24.99 19.33 25.98 19.66 27 20 C15.12 20 3.24 20 -9 20 C-8.67 19.34 -8.34 18.68 -8 18 C-5.36 18 -2.72 18 0 18 C0 12.06 0 6.12 0 0 Z " fill="#FEFEFE" transform="translate(240,24)"/>
<path d="M0 0 C0.95018005 0.00359528 1.90036011 0.00719055 2.8793335 0.01089478 C4.37184883 0.01067574 4.37184883 0.01067574 5.89451599 0.01045227 C9.20059348 0.01115186 12.5066154 0.01894637 15.81268311 0.02676392 C18.09811879 0.02862793 20.38355487 0.03005191 22.66899109 0.03105164 C28.69751073 0.03487809 34.72600644 0.04470947 40.7545166 0.05575562 C46.90085527 0.06596699 53.04719778 0.07054867 59.19354248 0.07559204 C71.26321447 0.08633162 83.33286868 0.10340957 95.40252686 0.12442017 C94.74252686 1.11442017 94.08252686 2.10442017 93.40252686 3.12442017 C93.40252686 2.46442017 93.40252686 1.80442017 93.40252686 1.12442017 C45.38752686 1.61942017 45.38752686 1.61942017 -3.59747314 2.12442017 C-3.59747314 2.78442017 -3.59747314 3.44442017 -3.59747314 4.12442017 C29.07252686 4.12442017 61.74252686 4.12442017 95.40252686 4.12442017 C95.40252686 4.45442017 95.40252686 4.78442017 95.40252686 5.12442017 C63.06252686 5.12442017 30.72252686 5.12442017 -2.59747314 5.12442017 C-2.59747314 7.10442017 -2.59747314 9.08442017 -2.59747314 11.12442017 C29.74252686 11.12442017 62.08252686 11.12442017 95.40252686 11.12442017 C95.40252686 11.45442017 95.40252686 11.78442017 95.40252686 12.12442017 C62.73252686 12.12442017 30.06252686 12.12442017 -3.59747314 12.12442017 C-3.92747314 12.78442017 -4.25747314 13.44442017 -4.59747314 14.12442017 C-4.59747314 13.13442017 -4.59747314 12.14442017 -4.59747314 11.12442017 C-5.25747314 11.12442017 -5.91747314 11.12442017 -6.59747314 11.12442017 C-6.26747314 12.11442017 -5.93747314 13.10442017 -5.59747314 14.12442017 C-4.35132736 14.12219955 -3.10518158 14.11997894 -1.8212738 14.11769104 C9.90655853 14.09744376 21.63438733 14.08244035 33.36223316 14.07260799 C39.39202921 14.06738322 45.42181118 14.06029287 51.45159912 14.04898071 C57.26763231 14.03813751 63.08365193 14.03214027 68.89969444 14.02954292 C71.12171327 14.02769127 73.34373133 14.02407561 75.5657444 14.01869011 C78.67126715 14.01146071 81.77673341 14.01043004 84.88226318 14.01089478 C85.80655121 14.0072995 86.73083923 14.00370422 87.68313599 14 C88.52867538 14.00137466 89.37421478 14.00274933 90.24537659 14.00416565 C90.9800456 14.00324386 91.7147146 14.00232206 92.47164631 14.00137234 C94.40252686 14.12442017 94.40252686 14.12442017 97.40252686 15.12442017 C98.41792798 11.02218431 98.41792798 11.02218431 97.40252686 7.12442017 C97.68494568 4.78437847 98.01503473 2.44937294 98.40252686 0.12442017 C99.39252686 0.61942017 99.39252686 0.61942017 100.40252686 1.12442017 C100.42946261 3.24935158 100.44889314 5.37437929 100.46502686 7.49942017 C100.47662842 8.68277954 100.48822998 9.86613892 100.50018311 11.08535767 C100.40252686 14.12442017 100.40252686 14.12442017 99.40252686 16.12442017 C85.59911798 16.14775074 71.79571216 16.16533371 57.99228764 16.17623234 C51.58353557 16.18146183 45.17479671 16.18856067 38.76605225 16.19985962 C32.58693244 16.21068616 26.40782537 16.2166965 20.22869682 16.21929741 C17.86547075 16.22115208 15.50224542 16.22477349 13.13902473 16.23015022 C9.84150789 16.23735755 6.54404438 16.23841124 3.246521 16.23794556 C2.25893799 16.24154083 1.27135498 16.24513611 0.25384521 16.24884033 C-0.63942978 16.24746567 -1.53270477 16.246091 -2.45304871 16.24467468 C-3.62418669 16.24605737 -3.62418669 16.24605737 -4.81898403 16.24746799 C-6.59747314 16.12442017 -6.59747314 16.12442017 -7.59747314 15.12442017 C-7.69656617 12.79281962 -7.72717819 10.45812075 -7.72247314 8.12442017 C-7.72505127 6.84567017 -7.72762939 5.56692017 -7.73028564 4.24942017 C-7.49315938 -1.3300214 -4.95745143 0.00792774 0 0 Z " fill="#0C1113" transform="translate(146.59747314453125,143.87557983398438)"/>
<path d="M0 0 C7.92 0 15.84 0 24 0 C24 6.27 24 12.54 24 19 C16.08 19 8.16 19 0 19 C0 12.73 0 6.46 0 0 Z " fill="#EDEDED" transform="translate(216,317)"/>
<path d="M0 0 C7.92 0 15.84 0 24 0 C24 6.27 24 12.54 24 19 C16.08 19 8.16 19 0 19 C0 12.73 0 6.46 0 0 Z " fill="#EDEDED" transform="translate(144,293)"/>
<path d="M0 0 C7.92 0 15.84 0 24 0 C24 6.27 24 12.54 24 19 C16.08 19 8.16 19 0 19 C0 12.73 0 6.46 0 0 Z " fill="#EDEDED" transform="translate(96,293)"/>
<path d="M0 0 C7.92 0 15.84 0 24 0 C24 5.94 24 11.88 24 18 C11.625 18.495 11.625 18.495 -1 19 C-0.67 12.73 -0.34 6.46 0 0 Z " fill="#EDEDED" transform="translate(120,24)"/>
<path d="M0 0 C7.92 0 15.84 0 24 0 C24 5.94 24 11.88 24 18 C16.08 18 8.16 18 0 18 C0 12.06 0 6.12 0 0 Z " fill="#EDEDED" transform="translate(216,24)"/>
<path d="M0 0 C7.92 0 15.84 0 24 0 C24 5.94 24 11.88 24 18 C16.08 18 8.16 18 0 18 C0 12.06 0 6.12 0 0 Z " fill="#EDEDED" transform="translate(168,24)"/>
<path d="M0 0 C7.92 0 15.84 0 24 0 C24 5.28 24 10.56 24 16 C20.484375 16.16276042 16.96875 16.32552083 13.453125 16.48828125 C9.94725201 17.00781673 8.47251967 17.52748033 6 20 C5.20376178 22.09415804 5.20376178 22.09415804 5 24 C3.35 24 1.7 24 0 24 C0 16.08 0 8.16 0 0 Z " fill="#ECECEC" transform="translate(72,264)"/>
<path d="M0 0 C7.92 0 15.84 0 24 0 C24 5.28 24 10.56 24 16 C16.08 16 8.16 16 0 16 C0 10.72 0 5.44 0 0 Z " fill="#EDEDED" transform="translate(240,288)"/>
<path d="M0 0 C7.92 0 15.84 0 24 0 C24 5.28 24 10.56 24 16 C16.08 16 8.16 16 0 16 C0 10.72 0 5.44 0 0 Z " fill="#EDEDED" transform="translate(168,264)"/>
<path d="M0 0 C7.92 0 15.84 0 24 0 C24 5.28 24 10.56 24 16 C16.08 16 8.16 16 0 16 C0 10.72 0 5.44 0 0 Z " fill="#EDEDED" transform="translate(120,264)"/>
<path d="M0 0 C0.66 0.33 1.32 0.66 2 1 C2 47.53 2 94.06 2 142 C-11.365 142.495 -11.365 142.495 -25 143 C-29.455 143.99 -29.455 143.99 -34 145 C-34 144.01 -34 143.02 -34 142 C-32.329375 141.7834375 -32.329375 141.7834375 -30.625 141.5625 C-27.17857953 141.21627965 -27.17857953 141.21627965 -25 140 C-16.75 140 -8.5 140 0 140 C0 93.8 0 47.6 0 0 Z " fill="#8DDFEB" transform="translate(267,58)"/>
<path d="M0 0 C1.79200333 -0.00422974 1.79200333 -0.00422974 3.62020874 -0.00854492 C5.59641708 -0.00550858 5.59641708 -0.00550858 7.61254883 -0.00241089 C9.00859625 -0.00376533 10.40464331 -0.00554551 11.8006897 -0.00772095 C15.59811398 -0.01229015 19.39551117 -0.01050782 23.19293594 -0.00734186 C27.16117681 -0.00481563 31.1294153 -0.00715654 35.09765625 -0.00872803 C41.76245542 -0.01054895 48.42724352 -0.00814544 55.09204102 -0.00338745 C62.80486151 0.00205502 70.51765557 0.00029231 78.23047543 -0.00521386 C84.8445073 -0.00974718 91.4585312 -0.01039445 98.07256413 -0.00777519 C102.02635697 -0.00621363 105.98013739 -0.00601535 109.93392944 -0.00931168 C113.65044776 -0.01219357 117.36693189 -0.01020881 121.0834465 -0.00441742 C123.10361432 -0.00245746 125.12378503 -0.00544104 127.14395142 -0.00854492 C128.3386203 -0.0057251 129.53328918 -0.00290527 130.76416016 0 C132.32823357 0.00056554 132.32823357 0.00056554 133.92390442 0.0011425 C136.38208008 0.12698364 136.38208008 0.12698364 138.38208008 1.12698364 C138.38208008 1.78698364 138.38208008 2.44698364 138.38208008 3.12698364 C90.20208008 3.12698364 42.02208008 3.12698364 -7.61791992 3.12698364 C-7.94791992 3.78698364 -8.27791992 4.44698364 -8.61791992 5.12698364 C-8.24291992 3.18948364 -8.24291992 3.18948364 -7.61791992 1.12698364 C-4.96524147 -0.19935559 -2.97170871 0.00107451 0 0 Z " fill="#89DBE7" transform="translate(127.617919921875,52.873016357421875)"/>
<path d="M0 0 C7.92 0 15.84 0 24 0 C24 3.96 24 7.92 24 12 C16.08 12 8.16 12 0 12 C0 8.04 0 4.08 0 0 Z " fill="#EDEDED" transform="translate(192,252)"/>
<path d="M0 0 C7.92 0 15.84 0 24 0 C24 3.96 24 7.92 24 12 C16.08 12 8.16 12 0 12 C0 8.04 0 4.08 0 0 Z " fill="#EDEDED" transform="translate(144,252)"/>
<path d="M0 0 C0.66 0 1.32 0 2 0 C3.23767059 6.71885436 3.13333061 13.37201323 3.11352539 20.18725586 C3.11367142 21.50501007 3.11381744 22.82276428 3.1139679 24.18045044 C3.11425373 27.77704245 3.10839162 31.37360082 3.10139394 34.97018504 C3.09512475 38.73513158 3.09455378 42.50007896 3.09336853 46.26502991 C3.09026571 53.38695521 3.08206649 60.50886509 3.07201904 67.63078362 C3.06082528 75.74203495 3.05533924 83.85328704 3.05032361 91.96454418 C3.03988298 108.64303847 3.0223039 125.32151726 3 142 C2.01 142 1.02 142 0 142 C0 95.14 0 48.28 0 0 Z " fill="#000F13" transform="translate(269,57)"/>
<path d="M0 0 C16.8929385 -0.18451025 16.8929385 -0.18451025 24 1 C24 4.63 24 8.26 24 12 C16.08 12 8.16 12 0 12 C0 8.04 0 4.08 0 0 Z " fill="#EDEEED" transform="translate(192,292)"/>
<path d="M0 0 C4.95 0 9.9 0 15 0 C15.33 0.66 15.66 1.32 16 2 C15.06553465 4.03144641 14.06775224 6.03533587 13 8 C12.34 7.67 11.68 7.34 11 7 C10.67 12.61 10.34 18.22 10 24 C6.7 24 3.4 24 0 24 C0 16.08 0 8.16 0 0 Z " fill="#EDEDED" transform="translate(96,48)"/>
<path d="M0 0 C0.33 0 0.66 0 1 0 C1 2.64 1 5.28 1 8 C3.97 8 6.94 8 10 8 C10 15.92 10 23.84 10 32 C7.03 32 4.06 32 1 32 C1 34.97 1 37.94 1 41 C0.67 41 0.34 41 0 41 C0 27.47 0 13.94 0 0 Z " fill="#FFFFFF" transform="translate(278,136)"/>
<path d="M0 0 C2.34451104 9.37804417 0.3863577 19.3410574 0 29 C-34.32 29 -68.64 29 -104 29 C-104.33 28.34 -104.66 27.68 -105 27 C-71.01 27 -37.02 27 -2 27 C-2 21.06 -2 15.12 -2 9 C-1 3.375 -1 3.375 0 0 Z " fill="#8DE2EE" transform="translate(225,212)"/>
<path d="M0 0 C3.3 0 6.6 0 10 0 C10 7.92 10 15.84 10 24 C6.7 24 3.4 24 0 24 C0 16.08 0 8.16 0 0 Z " fill="#EDEDED" transform="translate(96,192)"/>
<path d="M0 0 C3.3 0 6.6 0 10 0 C10 7.92 10 15.84 10 24 C6.7 24 3.4 24 0 24 C0 16.08 0 8.16 0 0 Z " fill="#EDEDED" transform="translate(96,144)"/>
<path d="M0 0 C3.3 0 6.6 0 10 0 C10 7.92 10 15.84 10 24 C6.7 24 3.4 24 0 24 C0 16.08 0 8.16 0 0 Z " fill="#EDEDED" transform="translate(96,96)"/>
<path d="M0 0 C0.74056641 0.02255859 1.48113281 0.04511719 2.24414062 0.06835938 C4.05947357 0.1269185 5.87375681 0.21659114 7.6875 0.3125 C5.81395174 3.68603628 4.03080483 6.16362789 1.0625 8.625 C-2.87515373 11.94168793 -6.70816457 15.3562654 -10.52734375 18.80859375 C-12.3125 20.3125 -12.3125 20.3125 -13.3125 20.3125 C-13.44822155 17.91475255 -13.54686868 15.52474755 -13.625 13.125 C-13.66689453 12.45146484 -13.70878906 11.77792969 -13.75195312 11.08398438 C-13.84277747 7.36018619 -13.40494169 5.44971813 -11.3125 2.34375 C-7.35610573 -0.33505862 -4.64900082 -0.2700492 0 0 Z " fill="#C0F4F7" transform="translate(258.3125,218.6875)"/>
<path d="M0 0 C-0.33 6.93 -0.66 13.86 -1 21 C2.66423183 18.8014609 5.74473466 16.69721986 9 14 C8.67 15.32 8.34 16.64 8 18 C7.34 18 6.68 18 6 18 C5.979375 18.680625 5.95875 19.36125 5.9375 20.0625 C4.57505732 24.33148708 1.79731576 27.59304001 -2 30 C-4.62402344 29.57861328 -4.62402344 29.57861328 -7 29 C-7.1746354 25.10473501 -7.28096492 21.2104781 -7.375 17.3125 C-7.42527344 16.20970703 -7.47554687 15.10691406 -7.52734375 13.97070312 C-7.67263449 5.95549734 -7.67263449 5.95549734 -5.67285156 3.11474609 C-1.9966821 0 -1.9966821 0 0 0 Z " fill="#0B0D0D" transform="translate(246,219)"/>
<path d="M0 0 C2.64 0 5.28 0 8 0 C8 7.92 8 15.84 8 24 C5.36 24 2.72 24 0 24 C0 16.08 0 8.16 0 0 Z " fill="#ECECEC" transform="translate(280,168)"/>
<path d="M0 0 C2.64 0 5.28 0 8 0 C8 7.92 8 15.84 8 24 C5.36 24 2.72 24 0 24 C0 16.08 0 8.16 0 0 Z " fill="#ECECEC" transform="translate(280,120)"/>
<path d="M0 0 C2.64 0 5.28 0 8 0 C8 7.92 8 15.84 8 24 C5.36 24 2.72 24 0 24 C0 16.08 0 8.16 0 0 Z " fill="#ECECEC" transform="translate(280,72)"/>
<path d="M0 0 C1.07573241 0.00092179 2.15146482 0.00184359 3.25979519 0.00279331 C4.48963634 0.00141865 5.7194775 0.00004398 6.98658657 -0.00137234 C8.36195302 0.00216727 9.73731923 0.00580209 11.1126852 0.00952244 C12.55123804 0.0098043 13.98979102 0.00964659 15.42834377 0.00907993 C19.34552749 0.00879194 23.26268086 0.01468899 27.17985749 0.02165389 C31.26915443 0.02788709 35.358452 0.0284912 39.44775295 0.0296793 C47.19674004 0.03279272 54.94571309 0.04100624 62.69469398 0.05102879 C71.51437815 0.0621896 80.33406298 0.0677003 89.15375245 0.07272422 C107.30144829 0.08318885 125.44913105 0.10078849 143.59681606 0.12304783 C143.59681606 1.11304783 143.59681606 2.10304783 143.59681606 3.12304783 C142.85836578 3.12120424 142.1199155 3.11936066 141.35908794 3.1174612 C123.39882228 3.07331073 105.43856742 3.04020517 87.47825909 3.01942348 C78.79282337 3.00910674 70.10742386 2.99503881 61.42201138 2.97216892 C53.85264587 2.95224722 46.28330658 2.93933429 38.71391559 2.93487084 C34.70522711 2.93226139 30.69661364 2.92611979 26.68794918 2.91158772 C22.91562303 2.89802307 19.14340287 2.89382292 15.37105465 2.89683247 C13.98592967 2.8962818 12.60080119 2.89229766 11.21569729 2.88463688 C9.32536788 2.87469375 7.43498174 2.87826878 5.544631 2.8825388 C3.95730349 2.87977342 3.95730349 2.87977342 2.33790874 2.87695217 C-0.41458963 3.12407183 -2.05885987 3.70491903 -4.40318394 5.12304783 C-3.28433937 0.16816475 -3.28433937 0.16816475 0 0 Z " fill="#000C12" transform="translate(122.40318393707275,50.876952171325684)"/>
<path d="M0 0 C0.99 0.33 1.98 0.66 3 1 C3 4.63 3 8.26 3 12 C1.35 12 -0.3 12 -2 12 C-2.495 11.01 -2.495 11.01 -3 10 C-2.34 10 -1.68 10 -1 10 C-1 7.69 -1 5.38 -1 3 C-33.34 3 -65.68 3 -99 3 C-99 2.67 -99 2.34 -99 2 C-97.77446915 1.98969254 -96.54893829 1.97938507 -95.28627014 1.96876526 C-83.76378827 1.87121208 -72.24136258 1.76849566 -60.71897221 1.66066074 C-54.79451973 1.60538308 -48.87006237 1.55195548 -42.94555664 1.50268555 C-37.23323041 1.45511326 -31.52096633 1.40277332 -25.80871391 1.34705925 C-23.62413508 1.32660325 -21.43953919 1.30789567 -19.2549305 1.29092598 C-16.2064303 1.26695355 -13.15804878 1.23688958 -10.10961914 1.20532227 C-9.19684204 1.1995668 -8.28406494 1.19381134 -7.34362793 1.18788147 C-3.35261476 1.53861061 -3.35261476 1.53861061 0 0 Z " fill="#090806" transform="translate(243,89)"/>
<path d="M0 0 C0.495 1.485 0.495 1.485 1 3 C-1.31347118 4.15673559 -2.57906802 4.11044816 -5.15078735 4.08229065 C-6.02019455 4.07525116 -6.88960175 4.06821167 -7.78535461 4.06095886 C-8.74129013 4.04801285 -9.69722565 4.03506683 -10.68212891 4.02172852 C-12.18949364 4.0073172 -12.18949364 4.0073172 -13.72731018 3.99261475 C-17.06046372 3.95954186 -20.39348956 3.91924111 -23.7265625 3.87890625 C-26.03298487 3.85461324 -28.33941202 3.83076928 -30.64584351 3.80735779 C-36.72535625 3.7444354 -42.80478487 3.67539189 -48.88421631 3.60510254 C-55.08423013 3.53449265 -61.28430375 3.46963177 -67.484375 3.40429688 C-79.65631571 3.27517946 -91.82817532 3.13959979 -104 3 C-104 2.67 -104 2.34 -104 2 C-102.71182877 1.98969254 -101.42365753 1.97938507 -100.09645081 1.96876526 C-87.98532537 1.87121426 -75.87425341 1.76849805 -63.76321507 1.66066074 C-57.53609086 1.60538186 -51.308962 1.55195407 -45.08178711 1.50268555 C-39.07768959 1.45511506 -33.07365122 1.40277518 -27.06962395 1.34705925 C-24.77340089 1.32660243 -22.47716159 1.307895 -20.18091011 1.29092598 C-16.97674786 1.26695535 -13.7726986 1.23689113 -10.56860352 1.20532227 C-9.60907272 1.1995668 -8.64954193 1.19381134 -7.66093445 1.18788147 C-6.35888565 1.17319824 -6.35888565 1.17319824 -5.03053284 1.15821838 C-4.27189721 1.15176583 -3.51326159 1.14531328 -2.731637 1.1386652 C-0.96977847 1.18591441 -0.96977847 1.18591441 0 0 Z " fill="#73C1CA" transform="translate(246,130)"/>
<path d="M0 0 C1.58211573 0.06548492 3.16670081 0.08578381 4.75 0.0625 C5.94882813 0.04896484 5.94882813 0.04896484 7.171875 0.03515625 C8.07679688 0.01775391 8.07679688 0.01775391 9 0 C9.33 0.66 9.66 1.32 10 2 C8.02 2 6.04 2 4 2 C4 2.66 4 3.32 4 4 C0.30377294 5.55630613 -2.01478897 6 -6 6 C-6.103125 6.763125 -6.20625 7.52625 -6.3125 8.3125 C-7.04364039 11.17059424 -7.76951913 12.15742885 -10 14 C-10.144375 13.21625 -10.28875 12.4325 -10.4375 11.625 C-10.87798925 9.03578982 -10.87798925 9.03578982 -12 7 C-11.04578192 5.85073734 -10.08647955 4.70569459 -9.125 3.5625 C-8.59132812 2.92441406 -8.05765625 2.28632813 -7.5078125 1.62890625 C-4.81315007 -1.2821669 -3.6028046 -0.93958034 0 0 Z " fill="#EEEDEE" transform="translate(246,210)"/>
<path d="M0 0 C0.99 0.33 1.98 0.66 3 1 C1.37660195 2.70884005 -0.29319053 4.37446717 -2 6 C-2.66 6 -3.32 6 -4 6 C-4 6.66 -4 7.32 -4 8 C-3.34 8 -2.68 8 -2 8 C-2 8.99 -2 9.98 -2 11 C-1.34 11.33 -0.68 11.66 0 12 C-1.75 14.0625 -1.75 14.0625 -4 16 C-6.125 15.625 -6.125 15.625 -8 15 C-8.66 15.66 -9.32 16.32 -10 17 C-11.22191229 11.62358593 -11.22191229 11.62358593 -10.30078125 9.03515625 C-8.6999362 6.53053081 -6.90367299 5.01353804 -4.5625 3.1875 C-3.78003906 2.56230469 -2.99757812 1.93710938 -2.19140625 1.29296875 C-1.10666016 0.65294922 -1.10666016 0.65294922 0 0 Z " fill="#0A1011" transform="translate(238,201)"/>
<path d="M0 0 C0 3.57811631 -0.86465142 4.26675381 -3 7 C-4.50641657 11.51924972 -4.44506142 16.11186629 -4.71875 20.84765625 C-5 24 -5 24 -6 26 C-6.99 26 -7.98 26 -9 26 C-9.57508737 17.13087481 -9.71636947 9.28084954 -4 2 C-1.828125 0.734375 -1.828125 0.734375 0 0 Z " fill="#FDFCFD" transform="translate(244,214)"/>
<path d="M0 0 C1.65743848 3.31487696 0.92748159 5.46397645 0 9 C-2.10632065 11.60638239 -4.46118547 13.81913843 -7 16 C-7.99 15.67 -8.98 15.34 -10 15 C-9.01 14.01 -8.02 13.02 -7 12 C-7.33 11.67 -7.66 11.34 -8 11 C-9.65 12.65 -11.3 14.3 -13 16 C-13.99 15.67 -14.98 15.34 -16 15 C-11.70328082 10.5824356 -7.27195049 6.40403459 -2.6015625 2.3828125 C-1.71147181 1.61429517 -0.83152881 0.83152881 0 0 Z " fill="#131719" transform="translate(261,224)"/>
<path d="M0 0 C-0.23611255 1.92263079 -0.4745671 3.8450114 -0.7265625 5.765625 C-0.97255008 7.77569495 -1.14706582 9.79420303 -1.3125 11.8125 C-2.11734744 15.54406539 -2.9467713 15.97060847 -6 18 C-6.13526139 15.75165504 -6.23210804 13.50097486 -6.3125 11.25 C-6.39951172 9.37054688 -6.39951172 9.37054688 -6.48828125 7.453125 C-6 4 -6 4 -3.54296875 1.546875 C-1 0 -1 0 0 0 Z " fill="#030406" transform="translate(246,219)"/>
<path d="M0 0 C0.33 0 0.66 0 1 0 C1 2.64 1 5.28 1 8 C-1.97 8 -4.94 8 -8 8 C-8.66 9.32 -9.32 10.64 -10 12 C-11.88916968 14.13388078 -13.93702287 16.02671753 -16 18 C-16.66 17.67 -17.32 17.34 -18 17 C-17.51789063 16.52949219 -17.03578125 16.05898437 -16.5390625 15.57421875 C-15.90742188 14.95160156 -15.27578125 14.32898438 -14.625 13.6875 C-13.99851563 13.07261719 -13.37203125 12.45773438 -12.7265625 11.82421875 C-10.81913393 9.91187472 -10.81913393 9.91187472 -9 7 C-7.33720673 5.9935725 -5.67016516 4.99414593 -4 4 C-2.64802142 2.68557638 -1.30973998 1.3565164 0 0 Z " fill="#FBFBFB" transform="translate(263,232)"/>
<path d="M0 0 C0.66 0.33 1.32 0.66 2 1 C2 5.29 2 9.58 2 14 C1.01 14.495 1.01 14.495 0 15 C-2.09749995 12.64031256 -2.96905704 11.45383006 -3.1875 8.25 C-3.125625 7.5075 -3.06375 6.765 -3 6 C-2.34 6 -1.68 6 -1 6 C-0.67 4.02 -0.34 2.04 0 0 Z " fill="#071217" transform="translate(245,116)"/>
<path d="M0 0 C0.66 0 1.32 0 2 0 C3.02319033 3.06957098 3.13371939 5.22440323 3.125 8.4375 C3.12757813 9.38496094 3.13015625 10.33242187 3.1328125 11.30859375 C3.01345621 13.72731396 2.81880918 15.72495423 2 18 C-0.70879335 19.35439668 -3.00933268 19.06501451 -6 19 C-6 18.67 -6 18.34 -6 18 C-4.35 18 -2.7 18 -1 18 C0.2062252 14.38132441 0.10816918 11.07493749 0.0625 7.3125 C0.05798828 6.61060547 0.05347656 5.90871094 0.04882812 5.18554688 C0.03706927 3.45699462 0.01913454 1.72848635 0 0 Z " fill="#85D9E4" transform="translate(246,87)"/>
<path d="M0 0 C0.66 0.33 1.32 0.66 2 1 C1.484375 1.5775 0.96875 2.155 0.4375 2.75 C-0.036875 3.4925 -0.51125 4.235 -1 5 C-0.835 5.639375 -0.67 6.27875 -0.5 6.9375 C0 9 0 9 -1.375 11.75 C-1.91125 12.4925 -2.4475 13.235 -3 14 C-3.33 14 -3.66 14 -4 14 C-4.144375 13.21625 -4.28875 12.4325 -4.4375 11.625 C-4.87798925 9.03578982 -4.87798925 9.03578982 -6 7 C-4.02 4.69 -2.04 2.38 0 0 Z " fill="#E3E3E3" transform="translate(240,210)"/>
<path d="M0 0 C0.98613281 0.00322266 1.97226563 0.00644531 2.98828125 0.00976562 C4.02082031 0.01814453 5.05335938 0.02652344 6.1171875 0.03515625 C7.67759766 0.04192383 7.67759766 0.04192383 9.26953125 0.04882812 C11.84380712 0.06063673 14.41796896 0.0771055 16.9921875 0.09765625 C16.9921875 0.42765625 16.9921875 0.75765625 16.9921875 1.09765625 C15.14367187 1.15373047 15.14367187 1.15373047 13.2578125 1.2109375 C3.78533104 1.56432398 -4.92012671 2.2135404 -14.0078125 5.09765625 C-14.0078125 4.10765625 -14.0078125 3.11765625 -14.0078125 2.09765625 C-12.8940625 1.95328125 -11.7803125 1.80890625 -10.6328125 1.66015625 C-6.72604997 1.05393448 -4.00082166 -0.02299323 0 0 Z " fill="#87E6F1" transform="translate(247.0078125,197.90234375)"/>
<path d="M0 0 C0.66 0.33 1.32 0.66 2 1 C1.8125 2.875 1.8125 2.875 1 5 C-0.65697379 5.69040574 -2.3255761 6.3530635 -4 7 C-6.77152212 9.52056045 -6.77152212 9.52056045 -9 12 C-9.99 11.67 -10.98 11.34 -12 11 C-8.17426612 7.07503959 -4.38002676 3.31820209 0 0 Z " fill="#182224" transform="translate(257,228)"/>
<path d="M0 0 C0 3.68553144 -0.8522582 5.03759752 -3 8 C-4.63631892 9.04892238 -6.30485863 10.04906703 -8 11 C-9.36984198 12.29579647 -10.7151049 13.61992749 -12 15 C-12.66 14.67 -13.32 14.34 -14 14 C-9.38 9.38 -4.76 4.76 0 0 Z " fill="#E0DFDD" transform="translate(269,224)"/>
<path d="M0 0 C0.66 0.33 1.32 0.66 2 1 C2.05386629 3.12472576 2.09273071 5.24983652 2.125 7.375 C2.14820313 8.55835937 2.17140625 9.74171875 2.1953125 10.9609375 C2 14 2 14 0 16 C-2.625 16.125 -2.625 16.125 -5 16 C-4.67 15.01 -4.34 14.02 -4 13 C-2.68 12.34 -1.36 11.68 0 11 C0 7.37 0 3.74 0 0 Z " fill="#05181D" transform="translate(245,88)"/>
<path d="M0 0 C0.66 0 1.32 0 2 0 C2.02725341 1.7290774 2.04650987 3.45828176 2.0625 5.1875 C2.07410156 6.15042969 2.08570313 7.11335937 2.09765625 8.10546875 C2.00486622 10.85576513 1.62111685 13.32479591 1 16 C0.34 16 -0.32 16 -1 16 C-1.02692484 13.70839681 -1.04636124 11.41670454 -1.0625 9.125 C-1.07410156 7.84882813 -1.08570313 6.57265625 -1.09765625 5.2578125 C-1 2 -1 2 0 0 Z " fill="#F0F2F2" transform="translate(236,224)"/>
<path d="M0 0 C0.33 0 0.66 0 1 0 C1.38063221 2.3260857 1.71269945 4.66055264 2 7 C1.67 7.33 1.34 7.66 1 8 C0.84379445 9.41327947 0.74943827 10.8335459 0.68359375 12.25390625 C0.64169922 13.10791016 0.59980469 13.96191406 0.55664062 14.84179688 C0.51732422 15.73962891 0.47800781 16.63746094 0.4375 17.5625 C0.39431641 18.46419922 0.35113281 19.36589844 0.30664062 20.29492188 C0.20021858 22.52978485 0.09820012 24.76476308 0 27 C-0.33 27 -0.66 27 -1 27 C-1.02892385 22.87501462 -1.04677267 18.75005515 -1.0625 14.625 C-1.07087891 13.449375 -1.07925781 12.27375 -1.08789062 11.0625 C-1.09111328 9.94101563 -1.09433594 8.81953125 -1.09765625 7.6640625 C-1.10289307 6.62717285 -1.10812988 5.5902832 -1.11352539 4.52197266 C-1 2 -1 2 0 0 Z " fill="#071B22" transform="translate(226,214)"/>
<path d="M0 0 C0.598125 0.20625 1.19625 0.4125 1.8125 0.625 C1.8125 2.275 1.8125 3.925 1.8125 5.625 C-0.1675 5.955 -2.1475 6.285 -4.1875 6.625 C-4.5175 4.975 -4.8475 3.325 -5.1875 1.625 C-2.1875 -0.375 -2.1875 -0.375 0 0 Z " fill="#B6E5E8" transform="translate(252.1875,219.375)"/>
<path d="M0 0 C0.66 0.33 1.32 0.66 2 1 C1.67 1.66 1.34 2.32 1 3 C1.33 3.99 1.66 4.98 2 6 C1.34 6.66 0.68 7.32 0 8 C-0.33 7.01 -0.66 6.02 -1 5 C-2.32 6.32 -3.64 7.64 -5 9 C-5.33 8.01 -5.66 7.02 -6 6 C-2.83636364 1.41818182 -2.83636364 1.41818182 0 0 Z " fill="#222423" transform="translate(246,215)"/>
<path d="M0 0 C0.66 0.33 1.32 0.66 2 1 C2.02693575 3.12493141 2.04636628 5.24995912 2.0625 7.375 C2.07410156 8.55835938 2.08570313 9.74171875 2.09765625 10.9609375 C2 14 2 14 1 16 C0.34 16 -0.32 16 -1 16 C-0.814375 14.88625 -0.62875 13.7725 -0.4375 12.625 C0.31680657 9.17431139 0.31680657 9.17431139 -1 7 C-0.71758117 4.6599583 -0.38749213 2.32495277 0 0 Z " fill="#0A1D22" transform="translate(245,144)"/>
<path d="M0 0 C0.66 0 1.32 0 2 0 C1.95875 1.2375 1.9175 2.475 1.875 3.75 C1.86324485 7.08258417 2.28096912 9.0991354 4 12 C4 12.99 4 13.98 4 15 C2.68 15 1.36 15 0 15 C0 10.05 0 5.1 0 0 Z " fill="#091D27" transform="translate(139,88)"/>
<path d="M0 0 C0 0.66 0 1.32 0 2 C0.99 2.33 1.98 2.66 3 3 C1.02 4.32 -0.96 5.64 -3 7 C-3.99 5.35 -4.98 3.7 -6 2 C-2.25 0 -2.25 0 0 0 Z " fill="#B6E6E8" transform="translate(261,220)"/>
<path d="M0 0 C1.2065625 0.0309375 1.2065625 0.0309375 2.4375 0.0625 C2.4375 0.3925 2.4375 0.7225 2.4375 1.0625 C5.4075 1.5575 5.4075 1.5575 8.4375 2.0625 C8.4375 2.3925 8.4375 2.7225 8.4375 3.0625 C0.6875 3.1875 0.6875 3.1875 -1.5625 2.0625 C-1.2325 3.0525 -0.9025 4.0425 -0.5625 5.0625 C-0.8925 5.7225 -1.2225 6.3825 -1.5625 7.0625 C-2.2225 7.0625 -2.8825 7.0625 -3.5625 7.0625 C-3.60504356 5.06295254 -3.60330783 3.06208364 -3.5625 1.0625 C-2.5625 0.0625 -2.5625 0.0625 0 0 Z " fill="#1B1A1A" transform="translate(183.5625,306.9375)"/>
<path d="M0 0 C1.08667969 0.01804688 2.17335938 0.03609375 3.29296875 0.0546875 C4.54013672 0.08949219 4.54013672 0.08949219 5.8125 0.125 C4.8225 1.61 4.8225 1.61 3.8125 3.125 C2.8225 3.125 1.8325 3.125 0.8125 3.125 C0.8125 2.465 0.8125 1.805 0.8125 1.125 C-0.1775 1.62 -0.1775 1.62 -1.1875 2.125 C-3.8598621 2.25915472 -6.51000488 2.16818541 -9.1875 2.125 C-5.66070901 -0.22619399 -4.15870515 -0.08943452 0 0 Z " fill="#D7F8F9" transform="translate(260.1875,218.875)"/>
<path d="M0 0 C0.99 0.33 1.98 0.66 3 1 C0.75 3.5 0.75 3.5 -2 6 C-3.32 6 -4.64 6 -6 6 C-6 5.34 -6 4.68 -6 4 C-3.1875 1.8125 -3.1875 1.8125 0 0 Z " fill="#0E2126" transform="translate(238,201)"/>
<path d="M0 0 C0.66 0 1.32 0 2 0 C2.33 0.99 2.66 1.98 3 3 C2.01 3.495 2.01 3.495 1 4 C1 7.63 1 11.26 1 15 C0.34 14.67 -0.32 14.34 -1 14 C-1.02685938 11.85423363 -1.04633088 9.70837355 -1.0625 7.5625 C-1.07410156 6.36753906 -1.08570313 5.17257813 -1.09765625 3.94140625 C-1 1 -1 1 0 0 Z " fill="#061B20" transform="translate(140,116)"/>
<path d="M0 0 C2.05078125 0.03255208 4.1015625 0.06510417 6.15234375 0.09765625 C6.48234375 0.75765625 6.81234375 1.41765625 7.15234375 2.09765625 C6.21261719 2.29681641 6.21261719 2.29681641 5.25390625 2.5 C4.02800781 2.76490234 4.02800781 2.76490234 2.77734375 3.03515625 C1.96523437 3.20917969 1.153125 3.38320313 0.31640625 3.5625 C-1.87711925 4.02096318 -1.87711925 4.02096318 -3.84765625 5.09765625 C-2.72914438 0.14424653 -2.72914438 0.14424653 0 0 Z " fill="#06181C" transform="translate(121.84765625,50.90234375)"/>
<path d="M0 0 C0.33 0 0.66 0 1 0 C1 1.98 1 3.96 1 6 C1.99 6 2.98 6 4 6 C2.25 9.875 2.25 9.875 0 11 C0 7.37 0 3.74 0 0 Z " fill="#D1F0F1" transform="translate(245,228)"/>
<path d="M0 0 C0 3.58045317 -0.80367515 4.29683095 -3 7 C-3.66 7.99 -4.32 8.98 -5 10 C-6 7 -6 7 -5.3125 4.4375 C-3.83913226 1.70124563 -2.86477034 1.05041579 0 0 Z " fill="#F7F6F6" transform="translate(244,214)"/>
<path d="M0 0 C0.99 0 1.98 0 3 0 C1.84826645 2.46800047 0.95216435 4.04783565 -1 6 C-1.99 5.67 -2.98 5.34 -4 5 C-2.1875 2.5 -2.1875 2.5 0 0 Z " fill="#201F1D" transform="translate(255,234)"/>
<path d="M0 0 C2.125 0.9375 2.125 0.9375 4 2 C2.35 3.32 0.7 4.64 -1 6 C-1.33 4.35 -1.66 2.7 -2 1 C-1.34 0.67 -0.68 0.34 0 0 Z " fill="#B8E4E6" transform="translate(254,226)"/>
<path d="M0 0 C0.66 0.33 1.32 0.66 2 1 C-0.31 3.31 -2.62 5.62 -5 8 C-5.33 7.34 -5.66 6.68 -6 6 C-4 4 -2 2 0 0 Z " fill="#282828" transform="translate(116,46)"/>
<path d="M0 0 C0.33 1.32 0.66 2.64 1 4 C-0.65 5.32 -2.3 6.64 -4 8 C-4 4 -4 4 -2 1.75 C-1.01 0.88375 -1.01 0.88375 0 0 Z " fill="#232323" transform="translate(276,214)"/>
<path d="M0 0 C1.37562854 1.28965176 2.70766393 2.62689293 4 4 C4 4.66 4 5.32 4 6 C2.35 5.67 0.7 5.34 -1 5 C-0.67 3.35 -0.34 1.7 0 0 Z " fill="#262626" transform="translate(272,48)"/>
</svg>
